<svg id="Group_2331" data-name="Group 2331" xmlns="http://www.w3.org/2000/svg" width="17.583" height="17.583" viewBox="0 0 17.583 17.583">
  <g id="background">
    <rect id="Rectangle_2038" data-name="Rectangle 2038" width="17.221" height="17.221" fill="none"/>
  </g>
  <g id="notes" transform="translate(2.198 2.198)">
    <path id="Path_4799" data-name="Path 4799" d="M14.99,8.4H6.2v1.1H14.99Zm2.2,1.933V4H4V17.188h6.329a4.945,4.945,0,1,0,6.859-6.859Zm-6.859,1.364a4.919,4.919,0,0,0-.546,1.1H6.2v1.1H9.527a5.036,5.036,0,0,0-.032.549,4.919,4.919,0,0,0,.287,1.648H5.1V5.1h10.99V9.782a4.916,4.916,0,0,0-4.754.812H6.2v1.1Zm4.112,6.53a3.782,3.782,0,1,1,3.782-3.782A3.79,3.79,0,0,1,14.44,18.222Z" transform="translate(-4 -4)" fill="#060000"/>
    <path id="Path_4800" data-name="Path 4800" d="M18,21.2l1.1-1.1,1.1,1.1L22.4,19l1.1,1.1-3.3,3.3Z" transform="translate(-10.307 -10.758)" fill="#060000"/>
  </g>
</svg>
