<svg xmlns="http://www.w3.org/2000/svg" width="10.924" height="9.703" viewBox="0 0 10.924 9.703">
  <g id="Group_2129" data-name="Group 2129" transform="translate(-33.982 -643)">
    <g id="icons" transform="translate(33.982 643)">
      <path id="profile-_1341_" data-name="profile-[#1341]" d="M128.81,2003.809a1.924,1.924,0,1,1,1.933-1.924,1.929,1.929,0,0,1-1.933,1.924m1.816.322a2.87,2.87,0,0,0,1.049-2.693,2.9,2.9,0,0,0-5.765.447,2.871,2.871,0,0,0,1.084,2.246,4.588,4.588,0,0,0-2.991,3.953.487.487,0,0,0,.482.534.475.475,0,0,0,.478-.428,3.674,3.674,0,0,1,3.847-3.42c2,0,4.054.482,4.248,2.627.022.245-.17,1.221.077,1.221.287,0,.027-.348,0-.631-.185-1.919-.887-3.25-2.509-3.856" transform="translate(-124 -1998.998)" fill="#060000" fill-rule="evenodd"/>
    </g>
    <g id="add-svgrepo-com_2_" data-name="add-svgrepo-com (2)" transform="translate(41.434 649.349)">
      <path id="Path_4169" data-name="Path 4169" d="M128.855,134.535h-1.264v-1.213c0-.085-.072-.123-.161-.123h-.222c-.089,0-.166.037-.166.123v1.213h-1.259a.184.184,0,0,0-.183.16v.214a.184.184,0,0,0,.183.16h1.259v1.218a.177.177,0,0,0,.166.171h.222a.172.172,0,0,0,.161-.171V135.07h1.264c.089,0,.122-.075.122-.16v-.246C128.977,134.578,128.944,134.535,128.855,134.535Z" transform="translate(-125.552 -133.153)" fill="#060000"/>
      <path id="Path_4171" data-name="Path 4171" d="M123.477,132.553h-.221a.231.231,0,0,1-.221-.224v-1.16h-1.2a.237.237,0,0,1-.237-.213v-.213a.237.237,0,0,1,.237-.213h1.2v-1.155c0-.106.088-.176.221-.176h.221c.132,0,.215.069.215.176v1.155h1.176a.2.2,0,0,1,.2.213v.213c0,.133-.066.213-.177.213h-1.2v1.16A.226.226,0,0,1,123.477,132.553Zm-1.645-1.916a.129.129,0,0,0-.127.106v.213a.129.129,0,0,0,.127.106h1.253a.051.051,0,0,1,.055.053v1.214a.122.122,0,0,0,.11.117h.221a.118.118,0,0,0,.1-.117v-1.214a.051.051,0,0,1,.055-.053h1.259c.044,0,.066-.037.066-.106v-.213a.1.1,0,0,0-.094-.106h-1.226a.051.051,0,0,1-.055-.053v-1.208c0-.064-.066-.069-.1-.069h-.221c-.033,0-.11.005-.11.069v1.208a.051.051,0,0,1-.055.053Z" transform="translate(-121.6 -129.2)" fill="#060000"/>
    </g>
  </g>
</svg>
