<svg xmlns="http://www.w3.org/2000/svg" width="15.074" height="17.04" viewBox="0 0 15.074 17.04">
  <g id="notification-svgrepo-com" transform="translate(0 0)">
    <g id="Group_1637" data-name="Group 1637" transform="translate(0 0)">
      <g id="Group_1636" data-name="Group 1636">
        <path id="Path_3352" data-name="Path 3352" d="M43.491,12.53l-.758-5.758a5.7,5.7,0,0,0-4.3-4.8V1.36a1.36,1.36,0,0,0-2.719,0v.616a5.7,5.7,0,0,0-4.3,4.8l-.758,5.758a1.361,1.361,0,0,0-1.118,1.338v1.088a.272.272,0,0,0,.272.272H39.7A3.367,3.367,0,0,1,37.072,16.5a3.325,3.325,0,0,1-2.012-.67.272.272,0,0,0-.327.435,3.865,3.865,0,0,0,2.339.779,3.912,3.912,0,0,0,3.293-1.813h3.972a.272.272,0,0,0,.272-.272V13.867A1.361,1.361,0,0,0,43.491,12.53Zm.574,2.153H30.079v-.816a.817.817,0,0,1,.816-.816h9.092a.272.272,0,1,0,0-.544H31.2l.746-5.666A5.159,5.159,0,0,1,36.038,2.46a.272.272,0,0,0,.218-.266V1.36a.816.816,0,0,1,1.631,0v.834a.272.272,0,0,0,.218.266,5.16,5.16,0,0,1,4.088,4.382l.745,5.666H41.074a.272.272,0,0,0,0,.544h2.174a.817.817,0,0,1,.817.816v.816Z" transform="translate(-29.535)"/>
      </g>
    </g>
    <g id="Group_1639" data-name="Group 1639" transform="translate(7.265 1.088)">
      <g id="Group_1638" data-name="Group 1638">
        <path id="Path_3353" data-name="Path 3353" d="M248.1,32.681a.272.272,0,0,0-.272.272v.725a.272.272,0,1,0,.544,0v-.725A.272.272,0,0,0,248.1,32.681Z" transform="translate(-247.828 -32.681)"/>
      </g>
    </g>
  </g>
</svg>
