<svg xmlns="http://www.w3.org/2000/svg" width="14.732" height="13.118" viewBox="0 0 14.732 13.118">
  <path id="_5115803551535797977" data-name="5115803551535797977" d="M24.05,23.876a8.958,8.958,0,0,0-.827-3.2,8.964,8.964,0,0,0-1.829-2.752c-.731-.7-1.43-.961-1.971-.728l-.013,0-.635.284V16s0,0,0-.006c0-1.178-2.032-2.066-4.727-2.066s-4.718.885-4.727,2.059c0,0,0,0,0,.007v2.662a.2.2,0,0,1,0,.082c0,.024,0,.048,0,.071a.25.25,0,0,0,0,.038v2.662a.206.206,0,0,1,0,.083c0,.03,0,.06,0,.089a.251.251,0,0,0,0,.048v2.662a.2.2,0,0,1,0,.082c0,1.178,2.032,2.065,4.728,2.065a7.33,7.33,0,0,0,4.094-1.008,3.236,3.236,0,0,0,2.188,1.517,1.047,1.047,0,0,0,.431-.09l2.5-1.115.008,0C23.807,25.593,24.086,24.9,24.05,23.876Zm-7.07-5.588-.076.033c-.521.233-.785.875-.793,1.755a9.768,9.768,0,0,1-2.062.214c-2.486,0-4.218-.82-4.218-1.556a.2.2,0,0,1,0-.082v-1.7a6.83,6.83,0,0,0,4.218,1.1,6.83,6.83,0,0,0,4.217-1.1v.76ZM9.826,21.547a.247.247,0,0,0,0-.041V19.7a6.834,6.834,0,0,0,4.218,1.1,10.412,10.412,0,0,0,2.085-.2,8.627,8.627,0,0,0,.521,2.169,8.462,8.462,0,0,1-2.606.378c-2.486,0-4.218-.82-4.218-1.555A.247.247,0,0,0,9.826,21.547Zm4.222-7.112c2.483,0,4.214.819,4.217,1.554V16c-.007.735-1.737,1.552-4.217,1.552s-4.217-.82-4.217-1.556S11.563,14.435,14.049,14.435Zm0,11.59c-2.486,0-4.218-.82-4.218-1.556a.2.2,0,0,1,0-.082V22.55a6.834,6.834,0,0,0,4.218,1.1,8.938,8.938,0,0,0,2.793-.413q.05.12.1.24a10.722,10.722,0,0,0,.9,1.633A6.886,6.886,0,0,1,14.049,26.025Zm6.575.431-.072.033c-.673.3-2.127-.948-3.14-3.217s-.97-4.186-.3-4.485l1.631-.728a3.423,3.423,0,0,0-.118,1.1,8.967,8.967,0,0,0,.827,3.2,8.964,8.964,0,0,0,1.829,2.751,3.418,3.418,0,0,0,.9.648Zm2.435-1.086h0c-.336.148-.854-.079-1.421-.625a8.449,8.449,0,0,1-1.717-2.591,8.456,8.456,0,0,1-.783-3.009c-.028-.789.149-1.327.485-1.476a.546.546,0,0,1,.224-.045,1.981,1.981,0,0,1,1.2.67,8.449,8.449,0,0,1,1.717,2.592,8.446,8.446,0,0,1,.783,3.008C23.569,24.681,23.393,25.219,23.058,25.37Z" transform="translate(-9.321 -13.925)" fill="#060000"/>
</svg>
