<svg xmlns="http://www.w3.org/2000/svg" width="16.584" height="15.478" viewBox="0 0 16.584 15.478">
  <g id="_7364060301582634778" data-name="7364060301582634778" transform="translate(0 -18.271)">
    <g id="Group_2334" data-name="Group 2334" transform="translate(0 18.271)">
      <path id="Path_4801" data-name="Path 4801" d="M38.756,22.693a2.212,2.212,0,1,0-1.563-.648A2.13,2.13,0,0,0,38.756,22.693Z" transform="translate(-35.439 -18.271)"/>
      <path id="Path_4802" data-name="Path 4802" d="M165.421,97.025a3.316,3.316,0,1,0-.972-2.345A3.2,3.2,0,0,0,165.421,97.025Z" transform="translate(-159.474 -89.152)"/>
      <path id="Path_4803" data-name="Path 4803" d="M367.663,22.693a2.211,2.211,0,1,0-1.564-.648A2.13,2.13,0,0,0,367.663,22.693Z" transform="translate(-354.396 -18.271)"/>
      <path id="Path_4804" data-name="Path 4804" d="M382.911,164.456a1.655,1.655,0,0,0-.376.181,5.668,5.668,0,0,1-.842.367,3.034,3.034,0,0,1-1.028.186,3.468,3.468,0,0,1-1.149-.2,4.336,4.336,0,0,1,.043.57,3.8,3.8,0,0,1-.7,2.211,2.978,2.978,0,0,1,2.289,1.106h1.157a1.98,1.98,0,0,0,1.192-.35,1.184,1.184,0,0,0,.484-1.023Q383.982,164.456,382.911,164.456Z" transform="translate(-367.398 -160.033)"/>
      <path id="Path_4805" data-name="Path 4805" d="M85.1,295.473a7.316,7.316,0,0,0-.229-.937,4.452,4.452,0,0,0-.371-.842,3.045,3.045,0,0,0-.536-.7,2.258,2.258,0,0,0-.739-.462,2.594,2.594,0,0,0-.963-.173,1.017,1.017,0,0,0-.371.186q-.285.186-.631.415a4.011,4.011,0,0,1-4.181,0q-.346-.229-.631-.415a1.017,1.017,0,0,0-.371-.186,2.6,2.6,0,0,0-.963.173,2.254,2.254,0,0,0-.738.462,3.038,3.038,0,0,0-.536.7,4.443,4.443,0,0,0-.371.842,7.337,7.337,0,0,0-.229.937,8.781,8.781,0,0,0-.121.942q-.03.436-.03.894a2.152,2.152,0,0,0,.63,1.637,2.331,2.331,0,0,0,1.676.6h7.549a2.331,2.331,0,0,0,1.676-.6,2.152,2.152,0,0,0,.631-1.637q0-.458-.03-.894A8.932,8.932,0,0,0,85.1,295.473Z" transform="translate(-70.879 -284.067)"/>
      <path id="Path_4806" data-name="Path 4806" d="M5.122,167.772a3.8,3.8,0,0,1-.7-2.211,4.314,4.314,0,0,1,.043-.57,3.471,3.471,0,0,1-1.149.2A3.033,3.033,0,0,1,2.289,165a5.676,5.676,0,0,1-.842-.367,1.649,1.649,0,0,0-.376-.181Q0,164.455,0,167.5a1.183,1.183,0,0,0,.484,1.023,1.981,1.981,0,0,0,1.192.35H2.833A2.978,2.978,0,0,1,5.122,167.772Z" transform="translate(0 -160.032)"/>
    </g>
  </g>
</svg>
