<svg xmlns="http://www.w3.org/2000/svg" width="13.461" height="13.902" viewBox="0 0 13.461 13.902">
  <g id="_15162667511639569275" data-name="15162667511639569275" transform="translate(0 0)">
    <path id="Path_4195" data-name="Path 4195" d="M17.243,18a2.243,2.243,0,1,0,2.243,2.243A2.243,2.243,0,0,0,17.243,18Zm.042,2.061c.377.088.893.209.893.743a.958.958,0,0,1-1.869,0h.374c0,.2.257.374.561.374s.561-.171.561-.374-.184-.281-.6-.379c-.376-.088-.892-.208-.892-.742a.958.958,0,0,1,1.869,0H17.8c0-.2-.257-.374-.561-.374s-.561.171-.561.374.184.28.6.378Z" transform="translate(-10.14 -14.238)" fill="#060000"/>
    <rect id="Rectangle_2016" data-name="Rectangle 2016" width="1.496" height="4.861" transform="translate(0 7.92)" fill="#060000"/>
    <path id="Path_4196" data-name="Path 4196" d="M8.134,50.739l2.714,1.7a1.247,1.247,0,0,0,1.31-.04l6.519-4.278a.6.6,0,0,0-.291-1.111l-7.4.715,1.5,1.029a1.147,1.147,0,0,1,.481.758,1.168,1.168,0,0,1-.206.89,1.113,1.113,0,0,1-.9.464,1.1,1.1,0,0,1-.625-.2L9.718,49.632l.212-.308,1.514,1.042a.733.733,0,0,0,1.012-.18.8.8,0,0,0,.14-.607.775.775,0,0,0-.325-.513L9.243,47H7l.008,3.739Z" transform="translate(-5.505 -38.706)" fill="#060000"/>
    <path id="Path_4203" data-name="Path 4203" d="M16.086,2.748A.748.748,0,0,0,15.338,2H3V6.487H7.617a2.2,2.2,0,0,0,.22,1.937,2.626,2.626,0,0,1,.787-.567,1.112,1.112,0,0,1,2.211,0,2.626,2.626,0,0,1,.787.567,2.2,2.2,0,0,0,.22-1.937h3.5a.748.748,0,1,0,0-1.5.748.748,0,1,0,0-1.5A.748.748,0,0,0,16.086,2.748Zm-5.318.58h4.487V3.7H10.768ZM15.31,5.187H10.824V4.813H15.31Z" transform="translate(-2.626 -2)" fill="#060000"/>
  </g>
</svg>
