<svg xmlns="http://www.w3.org/2000/svg" width="17.291" height="11.276" viewBox="0 0 17.291 11.276">
  <g id="education-svgrepo-com" transform="translate(0 0)">
    <path id="Path_4810" data-name="Path 4810" d="M28.816,37.285a3.317,3.317,0,0,1-1.274-.3c-2.287-.772-4.574-1.544-6.832-2.346a1.548,1.548,0,0,1-.376-.208.226.226,0,0,1,0-.386,1.059,1.059,0,0,1,.405-.208c2.432-.742,4.864-1.485,7.3-2.257a2.7,2.7,0,0,1,1.679,0c2.4.742,4.835,1.485,7.238,2.227a2.888,2.888,0,0,1,.434.208.231.231,0,0,1,0,.416.969.969,0,0,1-.347.178c-2.4.831-4.835,1.663-7.267,2.465A2.135,2.135,0,0,1,28.816,37.285Z" transform="translate(-20.225 -31.45)" fill="#060000"/>
    <path id="Path_4811" data-name="Path 4811" d="M32.227,51.454c-.342-.089-.427.148-.427.327V54.6a.984.984,0,0,0,.313.742,1.575,1.575,0,0,0,.256.208,5.594,5.594,0,0,0,1.908.861,9.931,9.931,0,0,0,4.072.267,8.934,8.934,0,0,0,2.591-.742,2.905,2.905,0,0,0,.968-.683.715.715,0,0,0,.228-.624c.028-.891.028-1.811.028-2.732,0-.5-.342-.445-.484-.416-1.253.445-2.534.861-3.787,1.307a2.824,2.824,0,0,1-1.851,0Z" transform="translate(-28.363 -45.5)" fill="#060000"/>
    <path id="Path_4812" data-name="Path 4812" d="M72.975,48.2c-.119.03-.148.089-.148.208V50.9a.867.867,0,0,1-.059.267c-.178.445-.386.891-.535,1.336a1.111,1.111,0,0,0,.238,1.158,1.556,1.556,0,0,0,.327.3,1.172,1.172,0,0,0,.445.178.873.873,0,0,0,.653-.267l.267-.267a1.2,1.2,0,0,0,.178-1.01,5.731,5.731,0,0,0-.564-1.4.573.573,0,0,1-.089-.3V48.166c0-.178-.148-.148-.208-.119Z" transform="translate(-57.185 -43.103)" fill="#060000"/>
  </g>
</svg>
