<svg id="Group_568" data-name="Group 568" xmlns="http://www.w3.org/2000/svg" width="61.934" height="23.584" viewBox="0 0 61.934 23.584">
  <g id="_16983312581574338606" data-name="16983312581574338606" transform="translate(37.002 4.708)">
    <rect id="Rectangle_661" data-name="Rectangle 661" width="18.876" height="18.876" transform="translate(3.255 0)" fill="#eceff1"/>
    <path id="Path_726" data-name="Path 726" d="M256,155.865l9.349,7.383V148.672Z" transform="translate(-243.534 -144.549)" fill="#cfd8dc"/>
    <path id="Path_727" data-name="Path 727" d="M22.595,64h-.779l-9.35,7.383L3.117,64H2.337A2.338,2.338,0,0,0,0,66.337V80.362A2.338,2.338,0,0,0,2.337,82.7h.779V68.123l9.35,7.191,9.35-7.193V82.7h.779a2.338,2.338,0,0,0,2.337-2.337V66.337A2.338,2.338,0,0,0,22.595,64Z" transform="translate(0 -64)" fill="#f44336"/>
  </g>
  <path id="apple_1_" data-name="apple (1)" d="M75.5,12.506a5.335,5.335,0,0,1,2.545-4.489A5.506,5.506,0,0,0,73.73,5.68c-1.837-.185-3.583,1.082-4.516,1.082s-2.368-1.054-3.891-1.026a5.773,5.773,0,0,0-4.879,2.957c-2.08,3.608-.532,8.955,1.495,11.881.99,1.433,2.171,3.042,3.722,2.985,1.493-.059,2.058-.967,3.863-.967s2.312.967,3.893.936c1.607-.03,2.625-1.461,3.608-2.9a13,13,0,0,0,1.633-3.353,5.207,5.207,0,0,1-3.164-4.77h0ZM72.529,3.742A5.2,5.2,0,0,0,73.756-.024a5.287,5.287,0,0,0-3.473,1.787A4.947,4.947,0,0,0,69.03,5.412a4.372,4.372,0,0,0,3.5-1.668Z" transform="translate(-59.457 0.024)" fill-rule="evenodd"/>
</svg>
