<svg id="_140286504716366468765377" data-name="140286504716366468765377" xmlns="http://www.w3.org/2000/svg" width="24.137" height="24.137" viewBox="0 0 24.137 24.137">
  <path id="Path_4204" data-name="Path 4204" d="M34.617,14a.5.5,0,0,0-.5.5V28.794a5.325,5.325,0,0,1-5.32,5.32H14.5a.5.5,0,0,0,0,1.006H28.794a6.336,6.336,0,0,0,6.326-6.326V14.5a.5.5,0,0,0-.5-.5Z" transform="translate(-10.983 -10.983)" fill="#060000"/>
  <path id="Path_4205" data-name="Path 4205" d="M25.474,29.12a3.651,3.651,0,0,0,3.646-3.646V11.646A3.651,3.651,0,0,0,25.474,8H11.646A3.651,3.651,0,0,0,8,11.646V25.474a3.651,3.651,0,0,0,3.646,3.646ZM9.006,25.474V11.646a2.645,2.645,0,0,1,2.64-2.64H25.474a2.645,2.645,0,0,1,2.64,2.64V25.474a2.645,2.645,0,0,1-2.64,2.64H11.646a2.645,2.645,0,0,1-2.64-2.64Z" transform="translate(-8 -8)" fill="#060000"/>
</svg>
