<svg xmlns="http://www.w3.org/2000/svg" width="294.111" height="65.509" viewBox="0 0 294.111 65.509">
  <g id="Group_2351" data-name="Group 2351" transform="translate(-69 -148.246)">
    <g id="Group_2123" data-name="Group 2123" transform="translate(69 148.246)">
      <path id="Path_4151" data-name="Path 4151" d="M107.108,96.536c4.211-.781,13.3,3.246,13.3,3.246l-1.083-.724.618.359s-11.541-9.389-8.284-12.173S124.8,83.4,124.8,83.4l-2.1-.085h1.516s-14.69-2.361-13.263-6.4,9.46-9.893,9.46-9.893l-1.122.55.575-.33s-13.9,5.3-14.683,1.09,3.246-13.3,3.246-13.3l-.973,1.513.607-1.048s-9.389,11.541-12.173,8.284S92.044,50.65,92.044,50.65l-.085,2.021V51.236S89.6,65.926,85.56,64.5s-9.893-9.46-9.893-9.46l.9,1.559-.682-1.008s5.3,13.9,1.09,14.683-13.3-3.246-13.3-3.246l.7.5-.238-.138s11.541,9.389,8.284,12.173S59.29,83.4,59.29,83.4l1.974.085H59.876s14.69,2.361,13.263,6.4-9.46,9.893-9.46,9.893l1.459-.746-.909.526s13.9-5.3,14.683-1.09-3.246,13.3-3.246,13.3l.746-1.126-.38.66s9.389-11.541,12.173-8.284,3.839,13.139,3.839,13.139l.085-2.07v1.484s2.361-14.69,6.4-13.263,9.893,9.46,9.893,9.46l-.724-1.424.5.874S102.9,97.317,107.108,96.536Zm-7.734-2.557L92.84,96.9l.025-.611-6.417-.739.092-.138L80.908,91l.533-.27-2.873-6.484.742.032.54-5.66.881.632,5.809-7.837h0l4.694-1.562,6.786,1.392-.124.2,5.049,4.165-.494.241,3.082,6.789-.241-.011L104.249,89l-.6-.4-4.03,5.863Z" transform="translate(-59.29 -50.65)" fill="rgba(255,232,136,0.52)"/>
      <g id="Group_2122" data-name="Group 2122" transform="translate(13.498 13.198)">
        <g id="Group_2121" data-name="Group 2121" transform="translate(0)">
          <circle id="Ellipse_2158" data-name="Ellipse 2158" cx="16.121" cy="16.121" r="16.121" transform="matrix(0.21, -0.978, 0.978, 0.21, 0, 31.524)" fill="#ffd400"/>
        </g>
      </g>
    </g>
    <text id="DAVID" transform="translate(288.111 191.629)" fill="#060000" font-size="24" font-family="SegoeUI-Bold, Segoe UI" font-weight="700"><tspan x="0" y="0">DAVID</tspan></text>
    <text id="Good_Morning" data-name="Good Morning" transform="translate(142.309 189.5)" fill="#858381" font-size="21" font-family="SegoeUI, Segoe UI"><tspan x="0" y="0">Good Morning</tspan></text>
  </g>
</svg>
