<svg xmlns="http://www.w3.org/2000/svg" width="27.323" height="23.56" viewBox="0 0 27.323 23.56">
  <g id="home-svgrepo-com" transform="translate(0 -17.319)">
    <path id="Path_3376" data-name="Path 3376" d="M53.617,135.551a.815.815,0,0,0-.815.815v8.269H36.264v-8.269a.815.815,0,0,0-1.63,0v9.084a.815.815,0,0,0,.815.815H53.617a.815.815,0,0,0,.815-.815v-9.084A.815.815,0,0,0,53.617,135.551Z" transform="translate(-30.871 -105.386)" fill="#585d5e"/>
    <path id="Path_3377" data-name="Path 3377" d="M27.085,30.4,14.237,17.557a.815.815,0,0,0-1.152,0L.239,30.4a.815.815,0,0,0,1.153,1.152l12.27-12.27,12.271,12.27A.815.815,0,1,0,27.085,30.4Z" transform="translate(0)" fill="#585d5e"/>
  </g>
</svg>
