<svg xmlns="http://www.w3.org/2000/svg" width="13.547" height="13.316" viewBox="0 0 13.547 13.316">
  <path id="invest-money-investment-investor-donor-svgrepo-com" d="M5.329,2.605a2.032,2.032,0,0,1,2.3-.194,2.1,2.1,0,0,1,.833,2.844,2.145,2.145,0,0,1-2.85.839A3.67,3.67,0,0,1,3.576,3.062h0A2.258,2.258,0,0,0,5.329,2.605Zm10.253,7.984A2.6,2.6,0,0,0,15.1,9.122c-.5-.817-1.565-2.156-2.092-2.833L14.4,4.234H10.544l1.387,2.048c-.527.677-1.6,2.022-2.1,2.839a2.671,2.671,0,0,0-.473,1.258H8.152s-1.188-2.758-1.21-2.8A1.784,1.784,0,0,0,5.307,6.5a2.668,2.668,0,0,0-2.28,1.962,23.2,23.2,0,0,0-.989,6.99h5.5V13.02H7.48a1.847,1.847,0,0,1-1.7-1.118l-.753-1.742a.266.266,0,0,1,.489-.21l.753,1.742a1.329,1.329,0,0,0,1.215.8h6.538A1.886,1.886,0,0,0,15.582,10.589Zm-2.963.253v.382h-.425v-.048h0v-.349a1.3,1.3,0,0,1-.608-.328l.312-.349a1.1,1.1,0,0,0,.446.231c.247.038.4-.081.414-.237.032-.29-.538-.4-.742-.511a.752.752,0,0,1-.489-.688.692.692,0,0,1,.672-.7V7.885h0V7.837h.419v.419a1.444,1.444,0,0,1,.575.3l-.285.371a1.058,1.058,0,0,0-.409-.22c-.2-.048-.414.005-.43.226-.005.091.032.263.462.4.231.07.763.231.763.785A.735.735,0,0,1,12.62,10.842Z" transform="translate(-2.035 -2.14)" fill="#060000"/>
</svg>
