<svg xmlns="http://www.w3.org/2000/svg" width="29.581" height="36.977" viewBox="0 0 29.581 36.977">
  <g id="badge-svgrepo-com" transform="translate(-74 -30)">
    <path id="Path_4821" data-name="Path 4821" d="M80.454,219.981,74,234.287l6.332-.262,3.994,4.92L90.78,224.64Z" transform="translate(0 -171.969)" fill="#ffc61b"/>
    <path id="Path_4822" data-name="Path 4822" d="M219.345,219.981l6.454,14.306-6.332-.262-3.994,4.92-6.454-14.306Z" transform="translate(-122.218 -171.969)" fill="#ffc61b"/>
    <path id="Path_4823" data-name="Path 4823" d="M145.137,44.791a14.791,14.791,0,0,1-14.791,14.791L119.908,44.791,130.346,30A14.791,14.791,0,0,1,145.137,44.791Z" transform="translate(-41.555)" fill="#d48b07"/>
    <path id="Path_4824" data-name="Path 4824" d="M74,44.791A14.791,14.791,0,0,0,88.791,59.581V30A14.791,14.791,0,0,0,74,44.791Z" fill="#ffc61b"/>
    <path id="Path_4825" data-name="Path 4825" d="M136.061,90.117,125.071,80.075A12.846,12.846,0,0,0,114.08,90.117a10.991,10.991,0,1,0,21.981,0Z" transform="translate(-36.28 -45.327)" fill="#fff"/>
    <path id="Path_4826" data-name="Path 4826" d="M115.976,81.066a9.1,9.1,0,0,1,9.094-9.094v18.19a9.1,9.1,0,0,0,9.094-9.1h1.9a10.991,10.991,0,0,0-21.981,0S115.976,81.066,115.976,81.066Z" transform="translate(-36.28 -36.275)" fill="#fee187"/>
  </g>
</svg>
