<svg id="mobile-Regular" xmlns="http://www.w3.org/2000/svg" width="10.727" height="13.814" viewBox="0 0 10.727 13.814">
  <path id="mobile-Regular-2" data-name="mobile-Regular" d="M12.2,2.25H9.024A3.592,3.592,0,0,0,5.25,5.615V12.7a3.592,3.592,0,0,0,3.774,3.365H12.2A3.592,3.592,0,0,0,15.977,12.7V5.615A3.592,3.592,0,0,0,12.2,2.25ZM14.785,12.7A2.457,2.457,0,0,1,12.2,15H9.024a2.457,2.457,0,0,1-2.582-2.3V5.615a2.457,2.457,0,0,1,2.582-2.3H12.2a2.457,2.457,0,0,1,2.582,2.3ZM12,13.407a.566.566,0,0,1-.6.531H9.819a.535.535,0,1,1,0-1.063h1.589A.566.566,0,0,1,12,13.407Z" transform="translate(-5.25 -2.25)" fill="#060000"/>
</svg>
