<svg xmlns="http://www.w3.org/2000/svg" width="28" height="14" viewBox="0 0 28 14">
  <g id="_9056745_details_more_icon" data-name="9056745_details_more_icon" transform="translate(-2 -7)">
    <path id="Path_4211" data-name="Path 4211" d="M2,8.4A1.4,1.4,0,0,1,3.4,7H28.6a1.4,1.4,0,0,1,0,2.8H3.4A1.4,1.4,0,0,1,2,8.4Z" fill="#585d5e"/>
    <path id="Path_4212" data-name="Path 4212" d="M2,12.4A1.4,1.4,0,0,1,3.4,11H28.6a1.4,1.4,0,0,1,0,2.8H3.4A1.4,1.4,0,0,1,2,12.4Z" transform="translate(0 1.6)" fill="#585d5e"/>
    <path id="Path_4213" data-name="Path 4213" d="M3.4,15a1.4,1.4,0,1,0,0,2.8H20.2a1.4,1.4,0,1,0,0-2.8Z" transform="translate(0 3.2)" fill="#585d5e"/>
  </g>
</svg>
