<svg xmlns="http://www.w3.org/2000/svg" width="78.768" height="37.309" viewBox="0 0 78.768 37.309">
  <g id="Group_1644" data-name="Group 1644" transform="translate(-159.116 -843.726)">
    <g id="Group_1642" data-name="Group 1642" transform="translate(-5.536 -6.703)">
      <path id="chevron-down" d="M0,0H0L18.654,18.654,37.309,0h0L18.654,11.193Z" transform="translate(224.766 887.737) rotate(-90)" fill="#060000"/>
      <g id="Path_3365" data-name="Path 3365" transform="matrix(0.999, -0.035, 0.035, 0.999, 206.536, 854.932)" fill="#060000">
        <path d="M 14.64349174499512 27.66056060791016 C 10.86194133758545 27.66056060791016 7.307711601257324 26.24553108215332 4.635531902313232 23.67612075805664 C 1.96869170665741 21.11185073852539 0.5000017285346985 17.7039909362793 0.5000017285346985 14.08028030395508 C 0.5000017285346985 10.45657062530518 1.96869170665741 7.048710346221924 4.635531902313232 4.484440326690674 C 7.307711601257324 1.915030360221863 10.86194133758545 0.5000002980232239 14.64349174499512 0.5000002980232239 C 18.42504119873047 0.5000002980232239 21.97927093505859 1.915030360221863 24.65145111083984 4.484440326690674 C 27.31829261779785 7.048710346221924 28.7869815826416 10.45657062530518 28.7869815826416 14.08028030395508 C 28.7869815826416 17.7039909362793 27.31829261779785 21.11185073852539 24.65145111083984 23.67612075805664 C 21.97927093505859 26.24553108215332 18.42504119873047 27.66056060791016 14.64349174499512 27.66056060791016 Z" stroke="none"/>
        <path d="M 14.64349174499512 1 C 10.99180221557617 1 7.560651779174805 2.365459442138672 4.982091903686523 4.844850540161133 C 2.414201736450195 7.313970565795898 1.000001907348633 10.59383964538574 1.000001907348633 14.08028030395508 C 1.000001907348633 17.56671142578125 2.414201736450195 20.84658050537109 4.982091903686523 23.31571006774902 C 7.560651779174805 25.79510116577148 10.99180221557617 27.16056060791016 14.64349174499512 27.16056060791016 C 18.29518127441406 27.16056060791016 21.72633171081543 25.79510116577148 24.30489158630371 23.31571006774902 C 26.87278175354004 20.84658050537109 28.2869815826416 17.56671142578125 28.2869815826416 14.08028030395508 C 28.2869815826416 10.59383964538574 26.87278175354004 7.313970565795898 24.30489158630371 4.844850540161133 C 21.72633171081543 2.365459442138672 18.29518127441406 1 14.64349174499512 1 M 14.64349174499512 0 C 22.73087120056152 0 29.2869815826416 6.303949356079102 29.2869815826416 14.08028030395508 C 29.2869815826416 21.85659980773926 22.73087120056152 28.16056060791016 14.64349174499512 28.16056060791016 C 6.556112289428711 28.16056060791016 1.9073486328125e-06 21.85659980773926 1.9073486328125e-06 14.08028030395508 C 1.9073486328125e-06 6.303949356079102 6.556112289428711 0 14.64349174499512 0 Z" stroke="none" fill="#fff"/>
      </g>
    </g>
    <g id="Group_1643" data-name="Group 1643" transform="translate(159.116 843.726)">
      <path id="chevron-down-2" data-name="chevron-down" d="M0,18.654H0L18.654,0,37.309,18.654h0L18.654,7.462Z" transform="translate(0 37.309) rotate(-90)" fill="#e2e2e2"/>
      <g id="Path_3365-2" data-name="Path 3365" transform="matrix(-0.999, -0.035, 0.035, -0.999, 35.901, 32.647)" fill="#e2e2e2">
        <path d="M 14.64353466033936 27.66056251525879 C 10.86197471618652 27.66056251525879 7.307734489440918 26.24553298950195 4.635544776916504 23.67613410949707 C 1.968704700469971 21.11186408996582 0.5000046491622925 17.70399284362793 0.5000046491622925 14.08028316497803 C 0.5000046491622925 10.45658302307129 1.968704700469971 7.048713207244873 4.635544776916504 4.484443187713623 C 7.307734489440918 1.915033221244812 10.86197471618652 0.5000031590461731 14.64353466033936 0.5000031590461731 C 18.42509460449219 0.5000031590461731 21.97933387756348 1.915033221244812 24.65152549743652 4.484433174133301 C 27.31837463378906 7.048703193664551 28.78707504272461 10.45657348632812 28.78707504272461 14.08028316497803 C 28.78707504272461 17.70398330688477 27.3183650970459 21.11185264587402 24.65152549743652 23.67612266540527 C 21.97933387756348 26.24553298950195 18.42509460449219 27.66056251525879 14.64353466033936 27.66056251525879 Z" stroke="none"/>
        <path d="M 14.64353466033936 27.16056251525879 C 18.29523468017578 27.16056251525879 21.72639465332031 25.79510307312012 24.30496406555176 23.31571388244629 C 26.87286376953125 20.84658241271973 28.28707504272461 17.56671333312988 28.28707504272461 14.08028316497803 C 28.28707504272461 10.59385299682617 26.87287521362305 7.313972949981689 24.30497550964355 4.844853401184082 C 21.72639465332031 2.365463256835938 18.29523468017578 1.000003218650818 14.64353466033936 1.000003218650818 C 10.99183464050293 1.000003218650818 7.560674667358398 2.365463256835938 4.982104778289795 4.844853401184082 C 2.414204597473145 7.313982963562012 1.000004649162292 10.59385299682617 1.000004649162292 14.08028316497803 C 1.000004649162292 17.56671333312988 2.414204597473145 20.84659385681152 4.982104778289795 23.31571388244629 C 7.560674667358398 25.79510307312012 10.99183464050293 27.16056251525879 14.64353466033936 27.16056251525879 M 14.64353466033936 28.16056251525879 C 6.556134700775146 28.16056251525879 4.660339527617907e-06 21.85661315917969 4.660339527617907e-06 14.08028316497803 C 4.660339527617907e-06 6.303963184356689 6.556134700775146 3.164978124914342e-06 14.64353466033936 3.164978124914342e-06 C 22.73093414306641 3.164978124914342e-06 29.28707504272461 6.303953170776367 29.28707504272461 14.08028316497803 C 29.28706550598145 21.85660362243652 22.73093414306641 28.16056251525879 14.64353466033936 28.16056251525879 Z" stroke="none" fill="#fff"/>
      </g>
    </g>
  </g>
</svg>
