<svg xmlns="http://www.w3.org/2000/svg" width="36.884" height="37.309" viewBox="0 0 36.884 37.309">
  <g id="Group_1642" data-name="Group 1642" transform="translate(-206.536 -850.429)">
    <path id="chevron-down" d="M0,0H0L18.654,18.654,37.309,0h0L18.654,11.193Z" transform="translate(224.766 887.737) rotate(-90)" fill="#060000"/>
    <g id="Path_3365" data-name="Path 3365" transform="matrix(0.999, -0.035, 0.035, 0.999, 206.536, 854.932)" fill="#060000">
      <path d="M 14.64349174499512 27.66056060791016 C 10.86194133758545 27.66056060791016 7.307711601257324 26.24553108215332 4.635531902313232 23.67612075805664 C 1.96869170665741 21.11185073852539 0.5000017285346985 17.7039909362793 0.5000017285346985 14.08028030395508 C 0.5000017285346985 10.45657062530518 1.96869170665741 7.048710346221924 4.635531902313232 4.484440326690674 C 7.307711601257324 1.915030360221863 10.86194133758545 0.5000002980232239 14.64349174499512 0.5000002980232239 C 18.42504119873047 0.5000002980232239 21.97927093505859 1.915030360221863 24.65145111083984 4.484440326690674 C 27.31829261779785 7.048710346221924 28.7869815826416 10.45657062530518 28.7869815826416 14.08028030395508 C 28.7869815826416 17.7039909362793 27.31829261779785 21.11185073852539 24.65145111083984 23.67612075805664 C 21.97927093505859 26.24553108215332 18.42504119873047 27.66056060791016 14.64349174499512 27.66056060791016 Z" stroke="none"/>
      <path d="M 14.64349174499512 1 C 10.99180221557617 1 7.560651779174805 2.365459442138672 4.982091903686523 4.844850540161133 C 2.414201736450195 7.313970565795898 1.000001907348633 10.59383964538574 1.000001907348633 14.08028030395508 C 1.000001907348633 17.56671142578125 2.414201736450195 20.84658050537109 4.982091903686523 23.31571006774902 C 7.560651779174805 25.79510116577148 10.99180221557617 27.16056060791016 14.64349174499512 27.16056060791016 C 18.29518127441406 27.16056060791016 21.72633171081543 25.79510116577148 24.30489158630371 23.31571006774902 C 26.87278175354004 20.84658050537109 28.2869815826416 17.56671142578125 28.2869815826416 14.08028030395508 C 28.2869815826416 10.59383964538574 26.87278175354004 7.313970565795898 24.30489158630371 4.844850540161133 C 21.72633171081543 2.365459442138672 18.29518127441406 1 14.64349174499512 1 M 14.64349174499512 0 C 22.73087120056152 0 29.2869815826416 6.303949356079102 29.2869815826416 14.08028030395508 C 29.2869815826416 21.85659980773926 22.73087120056152 28.16056060791016 14.64349174499512 28.16056060791016 C 6.556112289428711 28.16056060791016 1.9073486328125e-06 21.85659980773926 1.9073486328125e-06 14.08028030395508 C 1.9073486328125e-06 6.303949356079102 6.556112289428711 0 14.64349174499512 0 Z" stroke="none" fill="#fff"/>
    </g>
  </g>
</svg>
