<svg xmlns="http://www.w3.org/2000/svg" width="15.292" height="14.882" viewBox="0 0 15.292 14.882">
  <g id="_2037183771582885798" data-name="2037183771582885798" transform="translate(0 0)">
    <path id="Path_4807" data-name="Path 4807" d="M80.121,37.156a.568.568,0,0,1-.316.062,1.392,1.392,0,0,1-.388-.053,1.99,1.99,0,0,1-.316-.117l-.163.435a2.583,2.583,0,0,0,.256.1,1.771,1.771,0,0,0,.449.085v.45h.477v-.462a1,1,0,0,0,.312-.1.7.7,0,0,0,.206-.163.583.583,0,0,0,.114-.206.768.768,0,0,0,.034-.225.679.679,0,0,0-.059-.291.671.671,0,0,0-.163-.218,1.153,1.153,0,0,0-.246-.165,2.8,2.8,0,0,0-.309-.133q-.11-.038-.187-.07a.834.834,0,0,1-.131-.066.227.227,0,0,1-.078-.078.208.208,0,0,1-.025-.1.191.191,0,0,1,.079-.159.438.438,0,0,1,.261-.061,1.544,1.544,0,0,1,.346.038,1.752,1.752,0,0,1,.29.091l.117-.454a1.5,1.5,0,0,0-.225-.076,2.127,2.127,0,0,0-.339-.057v-.394h-.477v.409a.953.953,0,0,0-.288.1.643.643,0,0,0-.2.161.636.636,0,0,0-.112.21.8.8,0,0,0-.036.24.579.579,0,0,0,.214.473.983.983,0,0,0,.216.134q.119.055.244.1t.227.085a.98.98,0,0,1,.163.081.334.334,0,0,1,.1.093.217.217,0,0,1,.034.123A.206.206,0,0,1,80.121,37.156Z" transform="translate(-69.486 -30.972)" fill="#060000"/>
    <path id="Path_4808" data-name="Path 4808" d="M59.04,11.955a3.8,3.8,0,0,0,1.935.586l.115,0,.115,0a3.8,3.8,0,0,0,1.935-.586A3.605,3.605,0,0,0,64.823,9.02a3.746,3.746,0,0,0-1.477-3.139l-.693-.526L63.092,3.5a.321.321,0,0,0-.312-.395H59.4a.321.321,0,0,0-.312.395l.439,1.855-.693.525A3.746,3.746,0,0,0,57.358,9.02,3.605,3.605,0,0,0,59.04,11.955Zm.182-5.563.572-.433a.319.319,0,0,0,.138.032h.655a.321.321,0,1,0,0-.642h-.4l-.379-1.6h2.568l-.379,1.6h-.288a.321.321,0,0,0,0,.642h.542a.319.319,0,0,0,.138-.032l.572.433a3.1,3.1,0,0,1,1.223,2.6,2.972,2.972,0,0,1-1.386,2.42,3.118,3.118,0,0,1-1.609.486c-.064,0-.129,0-.194,0a3.118,3.118,0,0,1-1.609-.486A2.972,2.972,0,0,1,58,8.994,3.1,3.1,0,0,1,59.222,6.392Z" transform="translate(-50.92 -3.105)" fill="#060000"/>
    <path id="Path_4809" data-name="Path 4809" d="M32.978,79.949a.717.717,0,0,0-.864-.23l-4.6,2.034-.41.125a1.916,1.916,0,0,1-.447.08c-.329.019-.807.029-.89.035h-2.7a.188.188,0,0,1-.121-.045.248.248,0,0,1,.138-.456h3.061a.811.811,0,0,0,.769-.81.8.8,0,0,0-.621-.8,19.041,19.041,0,0,0-5.156-.66c-.068,0-.684.031-1.01.062v4.786l.017.4c.609.078,4.724.608,4.791.621a2.576,2.576,0,0,0,1.927-.3l.009-.005s4.128-2.453,5.936-3.7a.784.784,0,0,0,.326-.531A.81.81,0,0,0,32.978,79.949Z" transform="translate(-17.85 -70.276)" fill="#060000"/>
    <rect id="Rectangle_2040" data-name="Rectangle 2040" width="1.747" height="5.748" transform="translate(0 8.454)" fill="#060000"/>
  </g>
</svg>
