<svg xmlns="http://www.w3.org/2000/svg" width="13.355" height="14.253" viewBox="0 0 13.355 14.253">
  <g id="_7539774371595602163" data-name="7539774371595602163" transform="translate(-1.95 -1)">
    <path id="Path_4797" data-name="Path 4797" d="M15.274,16.238A.5.5,0,0,0,14.845,16a3.275,3.275,0,0,0-2.67,1.335l-.429.572A2.82,2.82,0,0,1,9.6,18.86H8.171a.477.477,0,1,1,0-.953h.906a1.468,1.468,0,0,0,1.478-1.382v-.048A.513.513,0,0,0,10.078,16H7.17a4.378,4.378,0,0,0-3.861,2L2.022,20a.433.433,0,0,0,0,.477l1.43,2.384a.7.7,0,0,0,.286.238h.1a.678.678,0,0,0,.286-.1A10.989,10.989,0,0,1,10.173,21.2a4.3,4.3,0,0,0,3.766-2.241l1.287-2.288A.448.448,0,0,0,15.274,16.238Z" transform="translate(0 -7.849)" fill="#060000"/>
    <path id="Path_4798" data-name="Path 4798" d="M10.477,5.767V7.292a5.841,5.841,0,0,1,.906-.1H14.29a1.389,1.389,0,0,1,1.335.953h.1a.45.45,0,0,0,.477-.477V5.767a.45.45,0,0,0,.477-.477V3.384a.45.45,0,0,0-.477-.477h-.572A1.4,1.4,0,0,0,14.29,1a1.331,1.331,0,0,0-.953.381A1.331,1.331,0,0,0,12.384,1a1.4,1.4,0,0,0-1.335,1.907h-.572A.45.45,0,0,0,10,3.384V5.29A.45.45,0,0,0,10.477,5.767ZM13.814,2.43a.477.477,0,0,1,.953,0,.45.45,0,0,1-.477.477h-.477Zm-1.43-.477a.45.45,0,0,1,.477.477v.477h-.477a.45.45,0,0,1-.477-.477A.45.45,0,0,1,12.384,1.953Z" transform="translate(-4.213)" fill="#060000"/>
  </g>
</svg>
