<svg xmlns="http://www.w3.org/2000/svg" width="160.286" height="87.477" viewBox="0 0 160.286 87.477">
  <g id="Graphic_Element" transform="translate(1524.338 -164.13)">
    <g id="Group_2212" data-name="Group 2212" transform="translate(-1523.49 164.13)">
      <path id="Path_4220" data-name="Path 4220" d="M-1486.4,225.619l19.377,17.714-18.269,29.9-38.2-23.251,31.557-27.128Z" transform="translate(1523.49 -212.887)" fill="#060000" stroke="#060000" stroke-miterlimit="10" stroke-width="1"/>
      <path id="Path_4221" data-name="Path 4221" d="M-887.26,191.256l19.375,33.769,32.11-13.841L-857.92,164.13Z" transform="translate(995.213 -164.13)" fill="#585d5e"/>
      <path id="Path_4222" data-name="Path 4222" d="M-1280.108,309.758l7.2,2.214,8.3-3.875s0-6.643,3.322-4.982l6.643,3.322s8.857.553,10.518,1.108,3.875,1.108,2.214,3.875,1.108,3.322,4.982,1.661a60.874,60.874,0,0,0,6.643-3.322l17.161,26.02-11.071,4.429s1.108,8.857,0,12.733-7.2,2.214-7.2,2.214,2.214,4.429-.553,4.429a30.238,30.238,0,0,1-6.643-1.108l-3.322,1.661-7.2-3.322-2.214-2.767.553,5.537-3.875,3.322-5.537-.553-5.536,2.767-6.09-1.661s-6.643.553-7.2-1.661a25.057,25.057,0,0,0-1.661-4.429l-4.982-6.643-4.429-4.429,1.661-6.09-9.965-5.537Z" transform="translate(1336.576 -279.311)" fill="#fff"/>
      <g id="Group_2211" data-name="Group 2211" transform="translate(3.565 5.784)">
        <g id="Group_2160" data-name="Group 2160" transform="translate(43.899 56.189)">
          <path id="Path_4223" data-name="Path 4223" d="M-1243.337,530.228a2.488,2.488,0,0,1,.528.019.317.317,0,0,0,.163-.037.3.3,0,0,0,.136-.088.326.326,0,0,0,.088-.136.32.32,0,0,0,.037-.163.429.429,0,0,0-.124-.3l-.086-.066a.413.413,0,0,0-.214-.058,2.615,2.615,0,0,0-.528-.019.316.316,0,0,0-.163.037.3.3,0,0,0-.136.088.325.325,0,0,0-.088.136.321.321,0,0,0-.037.163.43.43,0,0,0,.124.3.418.418,0,0,0,.3.124Z" transform="translate(1243.761 -529.374)" fill="#222221"/>
        </g>
        <g id="Group_2161" data-name="Group 2161" transform="translate(42.853 49.47)">
          <path id="Path_4224" data-name="Path 4224" d="M-1246.1,496.49c.842-.344,1.585-.864,2.406-1.247.428-.2.906-.321,1.351-.48.46-.163.916-.331,1.373-.5,1.831-.689,3.634-1.444,5.435-2.207.857-.363,1.712-.791,2.6-1.069a5.268,5.268,0,0,1,2.37-.324,2.684,2.684,0,0,1,2.206,2.581,3.715,3.715,0,0,1-.327,1.81,6.647,6.647,0,0,1-1.461,1.863c-.619.606-1.281,1.167-1.866,1.809a12.038,12.038,0,0,1-1.973,1.617,17.256,17.256,0,0,0-2.014,1.578,2.587,2.587,0,0,1-.406.378c-.2.12-.4.238-.6.351-.38.214-.77.414-1.167.6a15.1,15.1,0,0,1-4.982,1.346c-.445.039-.889.034-1.334.059a4.313,4.313,0,0,1-1.164-.029,3.156,3.156,0,0,1-1.967-1.186,5.03,5.03,0,0,1-.434-.945c-.173-.429-.334-.862-.477-1.3a10.438,10.438,0,0,1-.534-2.645,1.973,1.973,0,0,1,.005-.567c.046-.166.134-.326.183-.5a.424.424,0,0,0-.818-.226c-.051.178-.143.344-.19.523a2.3,2.3,0,0,0-.032.691,10.048,10.048,0,0,0,.182,1.476,15.3,15.3,0,0,0,.865,2.773,6.889,6.889,0,0,0,.487,1.1,3.145,3.145,0,0,0,.964.964,4.408,4.408,0,0,0,2.518.755,18.244,18.244,0,0,0,5.5-.886,16.987,16.987,0,0,0,2.566-1.123,4.571,4.571,0,0,0,1.186-.757,8.916,8.916,0,0,1,.977-.882c.706-.557,1.464-1.044,2.173-1.595.733-.572,1.335-1.261,2.012-1.894,1.2-1.128,2.562-2.3,2.888-4a3.948,3.948,0,0,0-1.186-3.828,3.592,3.592,0,0,0-2.392-.787,7.582,7.582,0,0,0-2.666.636c-1.873.794-3.74,1.6-5.63,2.353-.95.38-1.907.747-2.871,1.093-.487.175-.986.324-1.469.509a9.6,9.6,0,0,0-1.295.663,10.47,10.47,0,0,1-1.225.636.44.44,0,0,0-.3.523.427.427,0,0,0,.523.3Z" transform="translate(1249.921 -489.778)" fill="#222221"/>
        </g>
        <g id="Group_2162" data-name="Group 2162" transform="translate(47.761 54.735)">
          <path id="Path_4225" data-name="Path 4225" d="M-1220.995,530.928a19.587,19.587,0,0,0,.209,2.442,4.668,4.668,0,0,0,1.064,2.2,4.251,4.251,0,0,0,2.014,1.308,6.712,6.712,0,0,0,2.238.19c.818-.044,1.631-.139,2.448-.171.964-.037,1.931-.034,2.89-.159a8.3,8.3,0,0,0,2.725-.828,14.284,14.284,0,0,0,2.228-1.456c.709-.545,1.4-1.118,2.121-1.643a8.64,8.64,0,0,0,1.751-1.622c.533-.677.982-1.415,1.483-2.114a18.125,18.125,0,0,0,1.529-2.352,17.078,17.078,0,0,0,.886-1.97,3.438,3.438,0,0,0,.187-2.057,2.972,2.972,0,0,0-2.7-1.816,8.794,8.794,0,0,0-3.585.253,4.512,4.512,0,0,0-2.7,1.758,2.419,2.419,0,0,0-.283.68c-.131.529.689.757.818.226.014-.053.027-.105.044-.156.007-.019.051-.139.036-.1s.042-.087.056-.112c.029-.053.059-.105.092-.156s.054-.081.083-.12c-.049.066.032-.037.049-.059a2.691,2.691,0,0,1,.239-.244,1.709,1.709,0,0,1,.207-.17,3.525,3.525,0,0,1,.329-.212c.1-.058.2-.11.3-.161.126-.061.214-.1.3-.136a7.685,7.685,0,0,1,3.163-.519c.136.005.271.012.407.024.151.014.227.022.322.037a5.488,5.488,0,0,1,.682.148c.11.032.217.068.324.109.022.008.046.017.068.027-.015-.005-.075-.034,0,0,.053.024.105.049.158.075a1.684,1.684,0,0,1,.538.412,1.7,1.7,0,0,1,.2,1.532,9.008,9.008,0,0,1-.709,1.77,14.868,14.868,0,0,1-1.23,2.1c-.494.7-.984,1.4-1.468,2.109a8.222,8.222,0,0,1-1.363,1.587c-.618.54-1.313,1-1.956,1.507a12.967,12.967,0,0,1-4.216,2.567,25.815,25.815,0,0,1-5.17.467c-1.335.11-2.829.336-4.042-.382a3.706,3.706,0,0,1-1.476-1.683,5.844,5.844,0,0,1-.385-2c-.022-.375-.037-.752-.061-1.127-.03-.54-.879-.545-.845,0Z" transform="translate(1220.996 -520.802)" fill="#222221"/>
        </g>
        <g id="Group_2163" data-name="Group 2163" transform="translate(51.135 60.158)">
          <path id="Path_4226" data-name="Path 4226" d="M-1201.115,564.729a7.393,7.393,0,0,0,1.242,3.955,8.258,8.258,0,0,0,3.806,2.8,8.072,8.072,0,0,0,5.046-.1c.794-.231,1.561-.541,2.342-.811a5.14,5.14,0,0,0,2.13-1.244c.539-.563.954-1.235,1.512-1.782.4-.39.828-.753,1.234-1.137a39.62,39.62,0,0,0,2.754-2.869,22.916,22.916,0,0,0,2.513-3.441,9.678,9.678,0,0,0,1.33-3.609,3.353,3.353,0,0,0-1.045-3.242,4.571,4.571,0,0,0-2.961-.439c-.25.019-.5.037-.748.051-.543.031-.546.879,0,.848.489-.027.976-.076,1.464-.092a3.923,3.923,0,0,1,1.31.119c.051.015.1.032.149.049l.073.027c-.069-.029-.009,0,.005,0a2.6,2.6,0,0,1,.282.163c.076.051,0-.01.064.053.037.036.076.071.112.109.02.02.092.107.083.1s.063.092.085.131a2.985,2.985,0,0,1,.321,1.541,7.393,7.393,0,0,1-.937,3.18,18.992,18.992,0,0,1-2.187,3.242,36.384,36.384,0,0,1-2.637,2.869,28.968,28.968,0,0,0-2.52,2.5,6.373,6.373,0,0,1-1.488,1.559,11.777,11.777,0,0,1-2.112.852,10.321,10.321,0,0,1-4.749.857,6.929,6.929,0,0,1-3.86-2,5.8,5.8,0,0,1-1.144-1.549,6.042,6.042,0,0,1-.516-1.741c-.051-.317-.08-.638-.1-.959a.434.434,0,0,0-.424-.424.432.432,0,0,0-.424.428Z" transform="translate(1201.115 -552.766)" fill="#222221"/>
        </g>
        <g id="Group_2164" data-name="Group 2164" transform="translate(59.905 66.55)">
          <path id="Path_4227" data-name="Path 4227" d="M-1149.408,602.476a2.069,2.069,0,0,0,.66,1.836,3.56,3.56,0,0,0,1.8.742,8.361,8.361,0,0,0,4.527-.428,8.72,8.72,0,0,0,2.394-1.622,30.676,30.676,0,0,0,2.287-2.362c.74-.842,1.318-1.8,2.017-2.667a16.073,16.073,0,0,0,.988-1.313,7.785,7.785,0,0,0,.677-1.344,4.018,4.018,0,0,0,.138-3.178,2.622,2.622,0,0,0-2.3-1.7c-.543.029-.546.877,0,.848.692-.036,1.242.6,1.531,1.2a3.063,3.063,0,0,1-.09,2.34,8.237,8.237,0,0,1-1.407,2.369c-.326.409-.66.813-.954,1.247-.275.4-.541.806-.853,1.184-.662.8-1.395,1.553-2.131,2.287a9.882,9.882,0,0,1-2.057,1.641,5.49,5.49,0,0,1-2.4.731,12.456,12.456,0,0,1-1.649,0,4.115,4.115,0,0,1-1.732-.446,1.837,1.837,0,0,1-.19-.127c.063.049,0,0-.015-.017-.032-.029-.064-.058-.1-.088s-.034-.036-.051-.054-.032-.037-.047-.056c.029.037.029.037,0,0-.039-.056-.071-.115-.105-.175-.01-.017-.044-.093-.012-.019a1.163,1.163,0,0,1-.039-.11,1.609,1.609,0,0,1-.056-.236c.012.075,0-.017,0-.036,0-.053-.007-.105-.007-.158a2.754,2.754,0,0,1,.019-.29.428.428,0,0,0-.424-.424.436.436,0,0,0-.426.424Z" transform="translate(1149.424 -590.437)" fill="#222221"/>
        </g>
        <g id="Group_2165" data-name="Group 2165" transform="translate(68.318 17.672)">
          <path id="Path_4228" data-name="Path 4228" d="M-1096,312.7c-.5-1.3-1.5-2.33-2.121-3.572a8.5,8.5,0,0,1-.876-3.911c0-.107.008-.214.019-.321a.227.227,0,0,1,.009-.059c.01-.054.02-.109.032-.163a2.508,2.508,0,0,1,.076-.266c.009-.024.048-.122.034-.09s.036-.073.049-.1a2.45,2.45,0,0,1,.129-.212c.053-.081-.019.015.027-.039.029-.036.059-.07.09-.1.051-.054.105-.1.161-.153.076-.07-.025.015.034-.029.037-.027.075-.053.114-.076.068-.042.139-.083.21-.119.031-.015.063-.031.1-.044.073-.034.01,0,0,0l.066-.025a3.576,3.576,0,0,1,.512-.141c.044-.009.087-.015.131-.022.075-.012-.048,0,.059-.009s.2-.019.293-.024c.19-.008.378-.007.568,0a5.842,5.842,0,0,1,1.127.168,8.428,8.428,0,0,1,1.166.361c.046.017.092.036.136.054a.473.473,0,0,1,.071.031c.087.039.173.078.26.119.171.081.338.17.5.265.146.085.29.176.428.275l.1.071c.059.044-.041-.036.032.025.119.1.238.2.353.309,1.074.989,1.936,2.18,3.032,3.149,1.074.948,2.3,1.709,3.37,2.662a21.716,21.716,0,0,0,3.02,2.647c.411.249.859.428,1.283.65a2.247,2.247,0,0,1,.962.8,1.789,1.789,0,0,1,.215.67.429.429,0,0,0,.523.3.437.437,0,0,0,.3-.523,2.367,2.367,0,0,0-.77-1.439,5.493,5.493,0,0,0-1.295-.78,7.037,7.037,0,0,1-1.4-.84c-.557-.446-1.057-.957-1.566-1.454a18.033,18.033,0,0,0-1.627-1.407c-.585-.448-1.184-.877-1.76-1.339a15.646,15.646,0,0,1-1.678-1.554c-.518-.557-1-1.14-1.534-1.683a7.222,7.222,0,0,0-2.253-1.626,8.9,8.9,0,0,0-2.567-.716,4.7,4.7,0,0,0-2.423.275,2.514,2.514,0,0,0-1.442,1.7,5.184,5.184,0,0,0-.071,1.69,9.482,9.482,0,0,0,.419,2.163,9.4,9.4,0,0,0,.913,1.987c.377.618.82,1.193,1.2,1.809a5.452,5.452,0,0,1,.463.887.437.437,0,0,0,.523.3.433.433,0,0,0,.29-.524Z" transform="translate(1099.846 -302.372)" fill="#222221"/>
        </g>
        <g id="Group_2166" data-name="Group 2166" transform="translate(85.646)">
          <path id="Path_4229" data-name="Path 4229" d="M-997.313,227.277a22.779,22.779,0,0,0,5.162-.326,20.287,20.287,0,0,0,4.308-1.2,25.612,25.612,0,0,0,7.067-4.605c2.135-1.885,4.071-3.981,6.052-6.022,1.256-1.293,2.469-2.63,3.714-3.933s2.506-2.606,3.75-3.918q.937-.985,1.861-1.982c.621-.67,1.169-1.408,1.741-2.123a1.537,1.537,0,0,1,.363-.348,1.853,1.853,0,0,0,.482-.46c.233-.316.477-.623.73-.921.506-.6,1.047-1.166,1.608-1.71.275-.266.557-.529.838-.789.4-.37-.2-.969-.6-.6a25.907,25.907,0,0,0-3.215,3.466,1.2,1.2,0,0,1-.326.316,1.862,1.862,0,0,0-.429.378l-.87,1.089c-.29.363-.577.726-.894,1.069q-.456.491-.916.981c-2.454,2.613-4.966,5.168-7.413,7.786-2,2.135-4.008,4.274-6.144,6.27a27.68,27.68,0,0,1-6.67,4.8,20.708,20.708,0,0,1-8.973,1.967q-.613,0-1.227-.034c-.545-.025-.543.823,0,.853Z" transform="translate(997.722 -198.22)" fill="#222221"/>
        </g>
        <g id="Group_2167" data-name="Group 2167" transform="translate(57.835 22.694)">
          <path id="Path_4230" data-name="Path 4230" d="M-1161.219,335.988a15.4,15.4,0,0,0,1.992-.227,8.515,8.515,0,0,0,.964-.241,4.057,4.057,0,0,0,.457-.161c.175-.078.339-.188.511-.277a31.376,31.376,0,0,1,3.757-1.439q1.11-.4,2.211-.837a.438.438,0,0,0,.3-.523.429.429,0,0,0-.523-.3q-1.888.741-3.806,1.4a20.258,20.258,0,0,0-1.905.738c-.3.136-.577.305-.87.451a4.323,4.323,0,0,1-.908.278,12.357,12.357,0,0,1-2.175.285c-.543.031-.546.879,0,.848Z" transform="translate(1161.628 -331.966)" fill="#222221"/>
        </g>
        <g id="Group_2168" data-name="Group 2168" transform="translate(76.096 19.643)">
          <path id="Path_4231" data-name="Path 4231" d="M-1053.6,314.838a.424.424,0,0,0,0-.848.424.424,0,0,0,0,.848Z" transform="translate(1054.005 -313.99)" fill="#222221"/>
        </g>
        <g id="Group_2169" data-name="Group 2169" transform="translate(77.03 20.704)">
          <path id="Path_4232" data-name="Path 4232" d="M-1048.091,321.274c.821-.049,1.637-.185,2.462-.187a12.848,12.848,0,0,1,2.491.421,10.99,10.99,0,0,0,2.676.226,10.638,10.638,0,0,1,2.459.008,8.934,8.934,0,0,1,1.687.582,7.6,7.6,0,0,1,1.41.74,3.042,3.042,0,0,1,.529.47,1.327,1.327,0,0,1,.177.238c.032.051.061.1.088.156a.757.757,0,0,1,.056.124,1.6,1.6,0,0,1-.231,1.549,8.546,8.546,0,0,1-.837.916,1.712,1.712,0,0,1-.862.426,3.655,3.655,0,0,0-2.067.831c-.37.4.227,1,.6.6.453-.489,1.169-.478,1.775-.635a2.57,2.57,0,0,0,.993-.478,6.958,6.958,0,0,0,.809-.833,2.612,2.612,0,0,0,.757-2.04,2.616,2.616,0,0,0-.772-1.57,8.263,8.263,0,0,0-3-1.624,6.184,6.184,0,0,0-2.521-.367,14.911,14.911,0,0,1-2.7,0c-.524-.075-1.043-.187-1.561-.3a10.358,10.358,0,0,0-1.49-.275,21.785,21.785,0,0,0-2.934.171c-.54.031-.543.879,0,.847Z" transform="translate(1048.5 -320.238)" fill="#222221"/>
        </g>
        <g id="Group_2170" data-name="Group 2170" transform="translate(57.29 26.735)">
          <path id="Path_4233" data-name="Path 4233" d="M-1164.531,356.613c1.678.238,3.382.271,5.055.55.887.148,1.77.3,2.666.407s1.783.173,2.678.221c1.719.09,3.441.1,5.163.105.869.005,1.736.012,2.6.031.811.019,1.615.07,2.426.12.407.025.811.032,1.217.073s.786.087,1.176.143c.852.122,1.7.28,2.537.462a18.955,18.955,0,0,1,4.025,1.25,21.4,21.4,0,0,1,6.244,4.668c1.843,1.905,3.47,4,5.143,6.057q.306.374.614.748a.429.429,0,0,0,.6,0,.435.435,0,0,0,0-.6c-1.7-2.053-3.319-4.176-5.126-6.135a24.2,24.2,0,0,0-6.169-5.029,16.367,16.367,0,0,0-3.833-1.493,37.913,37.913,0,0,0-4.946-.892c-.816-.09-1.641-.117-2.462-.173-.84-.058-1.687-.058-2.53-.068-1.732-.02-3.465-.01-5.2-.059a43.353,43.353,0,0,1-5.284-.429c-.88-.134-1.753-.309-2.638-.409-.854-.1-1.709-.154-2.564-.236-.392-.037-.782-.078-1.171-.134a.439.439,0,0,0-.523.3.429.429,0,0,0,.3.528Z" transform="translate(1164.839 -355.782)" fill="#222221"/>
        </g>
        <g id="Group_2171" data-name="Group 2171" transform="translate(72.049 41.878)">
          <path id="Path_4234" data-name="Path 4234" d="M-1050.308,445.833a.408.408,0,0,1-.239-.383l-.638.367a7.012,7.012,0,0,1,1.7,1.926c.506.745.993,1.5,1.52,2.226a28.838,28.838,0,0,1,1.733,2.8c.526.935,1.067,1.856,1.636,2.766a14.583,14.583,0,0,1,1.483,2.873c.373,1.069.521,2.2.8,3.3.141.555.336,1.093.5,1.641s.305,1.093.436,1.644c.265,1.128.477,2.269.719,3.4.2.926.465,1.841.635,2.774a2.79,2.79,0,0,1-.173,1.946,3.07,3.07,0,0,1-1.948,1.1,3.37,3.37,0,0,1-2.345-.222,2.636,2.636,0,0,1-.909-.78,3.772,3.772,0,0,1-.5-1.117c-.253-.867-.377-1.761-.7-2.608a50.66,50.66,0,0,0-3.036-5.618c-1.088-2.031-2.043-4.128-3.159-6.142a50.538,50.538,0,0,0-3.77-5.6q-.494-.664-.984-1.33a.437.437,0,0,0-.58-.153.43.43,0,0,0-.153.58c.989,1.731,2.235,3.293,3.388,4.916a26.95,26.95,0,0,1,1.609,2.5c.523.94.94,1.936,1.366,2.922.886,2.051,1.72,4.127,2.65,6.159.412.9.865,1.783,1.261,2.691a8.724,8.724,0,0,1,.786,2.708,4.746,4.746,0,0,1-.424,2.3c-.064.151-.134.3-.212.443-.036.066-.073.131-.115.193-.071.105.085-.076-.039.048a1.173,1.173,0,0,1-.126.119,2.31,2.31,0,0,1-1.04.307,24.164,24.164,0,0,1-2.866.523,3.365,3.365,0,0,1-1.33-.176,2.1,2.1,0,0,1-.75-.546,16.7,16.7,0,0,1-1.653-2.1c-.578-.852-1.088-1.748-1.592-2.644-.991-1.766-2.041-3.5-3.058-5.25a35.663,35.663,0,0,0-3.354-5.029c-.64-.767-1.315-1.5-1.929-2.286s-1.211-1.59-1.878-2.336a13.211,13.211,0,0,0-1.028-1.04c-.338-.307-.955.1-.667.514a14.784,14.784,0,0,0,2.017,2.241c.748.714,1.471,1.446,2.156,2.221,1.422,1.607,2.756,3.3,4.047,5.012a52.45,52.45,0,0,1,3.562,5.28,12.914,12.914,0,0,1,2.15,5.552,3.213,3.213,0,0,1-.6,2.291,2.785,2.785,0,0,1-1.71.794,7.562,7.562,0,0,1-2.1-.044,7.76,7.76,0,0,1-2.506-.769,7.583,7.583,0,0,1-2.029-1.569,3.367,3.367,0,0,1-.592-1.044c-.2-.484-.417-.955-.657-1.42-.482-.932-1-1.849-1.541-2.75a29.462,29.462,0,0,0-1.8-2.6c-1.332-1.775-2.582-3.594-3.794-5.452q-.855-1.311-1.712-2.622a23.963,23.963,0,0,0-1.765-2.42,10.4,10.4,0,0,0-.969-1l-.514.667a6.317,6.317,0,0,1,1.517,1.98c.224.382.438.769.667,1.147.263.433.552.85.811,1.286.58.976,1.091,1.994,1.571,3.022.489,1.045.981,2.094,1.432,3.156.443,1.042.8,2.119,1.229,3.166.221.536.455,1.064.724,1.576.244.465.506.921.736,1.395a7.918,7.918,0,0,1,.538,1.454c.115.429.292.838.431,1.259a3.528,3.528,0,0,1,.153.573.7.7,0,0,1-.048.424,2.122,2.122,0,0,1-.64.743,6.325,6.325,0,0,1-2.4,1.115,17.818,17.818,0,0,1-3.636.443c-.543.029-.547.877,0,.848a12.558,12.558,0,0,0,6.012-1.364,2.859,2.859,0,0,0,1.561-1.933,3.12,3.12,0,0,0-.27-1.315c-.165-.462-.307-.92-.451-1.388a20.956,20.956,0,0,0-1.434-3.024c-.524-1.062-.9-2.185-1.329-3.288-.433-1.127-.945-2.219-1.444-3.317-.49-1.079-.994-2.155-1.566-3.2-.56-1.021-1.213-1.985-1.8-2.995a7.654,7.654,0,0,0-1.946-2.5c-.39-.282-.87.346-.514.667a23.31,23.31,0,0,1,3.594,4.77c1.256,1.917,2.488,3.848,3.86,5.686.646.867,1.312,1.721,1.912,2.622s1.125,1.861,1.653,2.81c.256.46.506.926.73,1.4.215.46.368.955.619,1.4a6.3,6.3,0,0,0,1.911,1.87,8.7,8.7,0,0,0,5.009,1.439,5.09,5.09,0,0,0,2.252-.472,2.927,2.927,0,0,0,1.464-1.719c.658-1.987-.161-4.157-1.049-5.932a42.054,42.054,0,0,0-3.409-5.557c-1.274-1.788-2.628-3.526-4.026-5.219-.713-.864-1.442-1.714-2.213-2.525-.7-.74-1.475-1.407-2.179-2.145a9.66,9.66,0,0,1-.954-1.15l-.667.514a54.032,54.032,0,0,1,4,4.71,27.66,27.66,0,0,1,1.917,2.37c.59.845,1.133,1.722,1.659,2.61s1.032,1.783,1.552,2.672,1.072,1.778,1.583,2.683c.517.92,1.023,1.846,1.586,2.739a24.981,24.981,0,0,0,1.809,2.45,3.4,3.4,0,0,0,1.834,1.312,6.654,6.654,0,0,0,3.241-.219,12.451,12.451,0,0,1,1.293-.258,2.449,2.449,0,0,0,1.2-.492,2.509,2.509,0,0,0,.613-.945,8.679,8.679,0,0,0,.407-1.1c.553-1.95-.353-3.984-1.179-5.715-.953-2-1.833-4.021-2.693-6.061a38.524,38.524,0,0,0-2.83-5.906c-1.1-1.721-2.4-3.3-3.529-5.005q-.42-.634-.8-1.293l-.733.428c1.369,1.875,2.813,3.7,4.028,5.686,1.242,2.028,2.236,4.2,3.319,6.31.509.993,1.047,1.965,1.622,2.92a30.64,30.64,0,0,1,1.6,2.886,9.376,9.376,0,0,1,.534,1.41c.122.439.209.889.314,1.334a4.565,4.565,0,0,0,1.247,2.467,4.492,4.492,0,0,0,5.175.229,2.626,2.626,0,0,0,1.322-2,6.9,6.9,0,0,0-.29-2.428c-.546-2.245-.894-4.542-1.546-6.76-.165-.563-.368-1.113-.517-1.68s-.265-1.15-.39-1.727a14.533,14.533,0,0,0-.428-1.651,11.432,11.432,0,0,0-.691-1.578c-.521-1-1.161-1.924-1.729-2.895s-1.1-1.97-1.683-2.93c-.531-.869-1.159-1.67-1.717-2.52a20.127,20.127,0,0,0-1.673-2.336,5.337,5.337,0,0,0-.977-.877.427.427,0,0,0-.638.367,1.27,1.27,0,0,0,.658,1.115.433.433,0,0,0,.441-.743Z" transform="translate(1077.856 -445.031)" fill="#222221"/>
        </g>
        <g id="Group_2172" data-name="Group 2172" transform="translate(107.543 50.012)">
          <path id="Path_4235" data-name="Path 4235" d="M-868.246,500.869c1.688.17,2.71-1.407,3.915-2.267a47.19,47.19,0,0,1,5.426-3.081c1.12-.594,2.24-1.188,3.366-1.768.485-.251.056-.982-.428-.733q-2.853,1.474-5.686,2.986c-.886.473-1.763.965-2.6,1.519a17.2,17.2,0,0,0-1.906,1.551,2.817,2.817,0,0,1-2.087.947.428.428,0,0,0-.424.424.432.432,0,0,0,.424.422Z" transform="translate(868.67 -492.969)" fill="#222221"/>
        </g>
        <g id="Group_2173" data-name="Group 2173" transform="translate(72.215 75.656)">
          <path id="Path_4236" data-name="Path 4236" d="M-1076.872,644.637a2.374,2.374,0,0,0,.709,1.237c.151.161.307.317.451.485.017.02.036.041.053.063l.017.02c.029.036.022.027-.017-.022,0,.027.07.1.085.119a1.666,1.666,0,0,1,.156.287.426.426,0,0,0,.58.153.437.437,0,0,0,.153-.58,3.807,3.807,0,0,0-.821-1.062c-.073-.076-.144-.154-.212-.234-.014-.015-.075-.112-.1-.115l.017.022-.015-.022-.046-.066c-.029-.044-.056-.088-.081-.136l-.036-.07c-.005-.012-.012-.024-.017-.036-.014-.029-.007-.015.017.041.007-.031-.041-.115-.049-.149a1.284,1.284,0,0,1-.031-.158.427.427,0,0,0-.523-.3.438.438,0,0,0-.3.521Z" transform="translate(1076.878 -644.101)" fill="#222221"/>
        </g>
        <g id="Group_2174" data-name="Group 2174" transform="translate(56.277 52.099)">
          <path id="Path_4237" data-name="Path 4237" d="M-1164.2,509c.012.1.026.188.037.283l.791-.214a9.166,9.166,0,0,0-2.606-3.163,3.781,3.781,0,0,0-3.151-.477c-2.433.765-1.86,4.3-.558,5.832a2.876,2.876,0,0,0,1.509.945,3.715,3.715,0,0,0,1.99-.137.423.423,0,0,0,.3-.3c.019-.121.036-.241.054-.361a.439.439,0,0,0-.3-.523.429.429,0,0,0-.522.3c-.019.12-.036.241-.054.361l.3-.3a3.2,3.2,0,0,1-1.364.173,1.958,1.958,0,0,1-1.088-.526,3.754,3.754,0,0,1-1.057-2.435c-.076-.855.048-1.824.872-2.163a2.927,2.927,0,0,1,2.44.207,7.747,7.747,0,0,1,2.5,2.991c.192.341.848.219.791-.214-.012-.1-.026-.188-.037-.283a.438.438,0,0,0-.424-.424c-.2,0-.453.2-.423.424Z" transform="translate(1170.809 -505.272)" fill="#222221"/>
        </g>
        <g id="Group_2175" data-name="Group 2175" transform="translate(63.558 58.271)">
          <path id="Path_4238" data-name="Path 4238" d="M-1121.5,544.176c-.655-.591-1.276-1.218-1.985-1.746a2.987,2.987,0,0,0-2.26-.752c-.991.188-1.505,1.2-1.833,2.055a3.33,3.33,0,0,0,.288,3.371c.655.748,1.729.582,2.611.548.545-.022.546-.87,0-.848-.377.015-.753.051-1.132.039a1.249,1.249,0,0,1-.738-.2c.061.044-.049-.041-.049-.042-.022-.02-.042-.041-.063-.063a.741.741,0,0,1-.122-.166,1.985,1.985,0,0,1-.227-.6,2.9,2.9,0,0,1,.146-1.529,4.162,4.162,0,0,1,.625-1.278,1.764,1.764,0,0,1,.316-.307.8.8,0,0,1,.363-.156c.081-.019.027-.007.007-.005.041-.005.081-.007.122-.009a1.674,1.674,0,0,1,.205.009c-.07-.009.107.024.137.03a2.2,2.2,0,0,1,.253.081,3.457,3.457,0,0,1,.389.2c.163.1.317.2.47.309a24.067,24.067,0,0,1,1.878,1.659c.4.365,1.006-.232.6-.6Z" transform="translate(1127.899 -541.645)" fill="#222221"/>
        </g>
        <g id="Group_2176" data-name="Group 2176" transform="translate(68.214 63.553)">
          <path id="Path_4239" data-name="Path 4239" d="M-1095.218,574.04a1.7,1.7,0,0,1-.686-.343,5.552,5.552,0,0,0-.721-.448c-.2-.1-.356-.317-.587-.414a.959.959,0,0,0-.789.061,3.632,3.632,0,0,0-1.128.949,5.248,5.248,0,0,0-.66.872,5.622,5.622,0,0,0-.628,2.094,3.664,3.664,0,0,0,.287,2.116,1.847,1.847,0,0,0,2.151.842c.533-.114.307-.932-.226-.818a1.378,1.378,0,0,1-.438.042c-.037,0-.075,0-.112-.007.1.01-.01,0-.029-.005a1.684,1.684,0,0,1-.224-.066c.1.041-.056-.036-.082-.049s-.044-.029-.064-.042c.088.061.007.005-.01-.01-.044-.042-.088-.087-.129-.132-.068-.08.047.075-.008-.014-.024-.036-.046-.071-.068-.107-.032-.056-.061-.115-.088-.175.041.1-.029-.092-.039-.122a2.736,2.736,0,0,1-.092-.422c.014.1,0-.024,0-.037,0-.037-.007-.076-.008-.114-.005-.078-.009-.156-.009-.234a4.493,4.493,0,0,1,.02-.478,3.079,3.079,0,0,1,.056-.411,5.147,5.147,0,0,1,.117-.507c.037-.136.08-.271.127-.4.026-.07.051-.138.08-.205-.039.092.009-.015.014-.029.019-.041.039-.083.059-.124a2.807,2.807,0,0,1,.173-.3,2.317,2.317,0,0,1,.236-.31,4.976,4.976,0,0,1,.864-.877c.041-.029.081-.056.124-.083.015-.009.156-.083.1-.059.037-.015.08-.02.117-.037-.051.022,0,.015-.027-.008a2.351,2.351,0,0,0,.545.394c.534.255.95.75,1.554.854a.437.437,0,0,0,.523-.3.432.432,0,0,0-.3-.528Z" transform="translate(1100.456 -572.775)" fill="#222221"/>
        </g>
        <g id="Group_2177" data-name="Group 2177" transform="translate(71.445 69.633)">
          <path id="Path_4240" data-name="Path 4240" d="M-1081.414,609.039a4.926,4.926,0,0,0,.38,1.788,1.906,1.906,0,0,0,1.213,1.016,3.272,3.272,0,0,0,1.127.088.432.432,0,0,0,.424-.424.43.43,0,0,0-.424-.424,3.738,3.738,0,0,1-.479.008c-.066,0-.131-.012-.2-.017-.027,0,.085.015,0,0l-.109-.02c-.056-.012-.11-.027-.165-.044-.029-.008-.056-.019-.083-.029-.088-.031.061.031,0,0s-.1-.047-.146-.076a.651.651,0,0,1-.058-.037.265.265,0,0,0-.029-.019c-.059-.039.01,0,.022.019a.653.653,0,0,0-.109-.1c-.037-.036-.07-.078-.105-.115s.054.076.025.032l-.02-.027-.039-.056a1.285,1.285,0,0,1-.087-.149l-.032-.063c-.047-.1.005,0,0,0s-.054-.146-.061-.163a3.655,3.655,0,0,1-.1-.356c-.015-.07-.027-.137-.039-.207-.007-.039-.012-.076-.019-.115-.015-.1.007.054,0-.02-.019-.166-.036-.334-.047-.5a.432.432,0,0,0-.424-.424.441.441,0,0,0-.417.431Z" transform="translate(1081.414 -608.608)" fill="#222221"/>
        </g>
        <g id="Group_2178" data-name="Group 2178" transform="translate(57.264 26.849)">
          <path id="Path_4241" data-name="Path 4241" d="M-1164.584,357.306c2.732.212,5.469.092,8.2.07,1.383-.01,2.767.005,4.147.105,1.356.1,2.684.322,4.023.55,2.606.441,5.214.879,7.792,1.473,1.317.3,2.623.648,3.914,1.047a12.949,12.949,0,0,1,3.015,1.291,23.935,23.935,0,0,1,4.761,4.233q.555.593,1.113,1.183c.171.18.344.358.519.536a5.853,5.853,0,0,1,.584.752c.728,1.02,1.5,2.006,2.316,2.961.845.993,1.731,1.95,2.642,2.881a5.94,5.94,0,0,1,1.127,1.393,13.9,13.9,0,0,1,.614,1.522,6.585,6.585,0,0,0,.769,1.561,10.852,10.852,0,0,0,1.217,1.327,4.14,4.14,0,0,1,.531.562c.166.246.305.5.494.738a10.785,10.785,0,0,1,.991,1.52,20.973,20.973,0,0,1,2.048,7.413c.178,1.291.307,2.589.445,3.886.071.672.144,1.342.224,2.014a8.213,8.213,0,0,0,.137.954,10.186,10.186,0,0,1,.193,1.01,7.618,7.618,0,0,1,.012,1.936.428.428,0,0,0,.424.424.433.433,0,0,0,.424-.424,8.092,8.092,0,0,0-.029-2.065c-.088-.65-.248-1.281-.326-1.933-.159-1.346-.29-2.7-.441-4.042-.149-1.318-.319-2.635-.558-3.94a22.252,22.252,0,0,0-1-3.906,13.222,13.222,0,0,0-.777-1.671,9.026,9.026,0,0,0-1.057-1.641,3.9,3.9,0,0,1-.434-.628,3.673,3.673,0,0,0-.582-.685,11.533,11.533,0,0,1-1.2-1.274,26.012,26.012,0,0,1-1.422-3.158,6.394,6.394,0,0,0-1.152-1.42q-.708-.723-1.391-1.464c-.87-.947-1.71-1.924-2.5-2.937q-.585-.748-1.133-1.529a5.072,5.072,0,0,0-.526-.675q-.3-.308-.6-.619a44.575,44.575,0,0,0-4.642-4.556,12.962,12.962,0,0,0-2.779-1.7,25.828,25.828,0,0,0-3.635-1.167c-2.6-.7-5.241-1.2-7.89-1.654-1.347-.232-2.694-.487-4.048-.682a35.533,35.533,0,0,0-4.223-.333c-2.762-.064-5.526.1-8.289.024q-1.021-.028-2.036-.105c-.543-.046-.54.8,0,.845Z" transform="translate(1164.991 -356.459)" fill="#222221"/>
        </g>
        <g id="Group_2179" data-name="Group 2179" transform="translate(42.929 54.703)">
          <path id="Path_4242" data-name="Path 4242" d="M-1248.232,522.684c0,.168,0,.334-.007.5a1.237,1.237,0,0,1-.049.326,1.009,1.009,0,0,1-.039.12c-.02.059.032-.063,0-.01-.007.014-.014.029-.022.042-.021.036-.043.07-.063.1-.058.092.024-.019-.036.046a4.235,4.235,0,0,0-.831,1.206,4.16,4.16,0,0,0-.193,1.7,6.27,6.27,0,0,0,.254,1.625,3.513,3.513,0,0,0,2.087,2.17,8.025,8.025,0,0,0,3,.47c.974,0,1.946-.078,2.918-.115a7.59,7.59,0,0,0,3.847-1.239c.653-.419,1.271-.891,1.921-1.315.679-.445,1.364-.879,2.019-1.357.3-.219.6-.445.881-.684.073-.061-.066.047-.005,0l.081-.061c.063-.046.126-.09.188-.134.331-.231.667-.455,1-.68a22.437,22.437,0,0,0,2.438-1.848,3.691,3.691,0,0,0,1.41-2.128,1.307,1.307,0,0,0-.048-.512.424.424,0,0,0-.818.226c.01.036.015.071.027.107-.021-.071,0-.054,0,.01,0,.032,0,.064,0,.1,0,.019,0,.037-.005.056,0-.027.019-.08,0-.027-.022.073-.039.148-.063.219-.029.092.02-.034-.014.034-.02.041-.039.081-.061.121a3.456,3.456,0,0,1-.7.881,15.59,15.59,0,0,1-2.2,1.76c-.613.426-1.257.816-1.841,1.283-1.186.949-2.493,1.71-3.73,2.588a8.508,8.508,0,0,1-3.431,1.664,13.346,13.346,0,0,1-1.585.121c-.463.025-.927.054-1.391.071a10.749,10.749,0,0,1-2.871-.187,3.671,3.671,0,0,1-1.2-.48,2.436,2.436,0,0,1-.828-.859,3.463,3.463,0,0,1-.382-1.251,5.758,5.758,0,0,1-.02-1.627,2.485,2.485,0,0,1,.083-.348c.007-.019.056-.141.026-.076a1.812,1.812,0,0,1,.1-.178,3.034,3.034,0,0,1,.37-.512,2.054,2.054,0,0,0,.562-.984,4.537,4.537,0,0,0,.059-.935.422.422,0,0,0-.843,0Z" transform="translate(1249.479 -520.615)" fill="#222221"/>
        </g>
        <g id="Group_2180" data-name="Group 2180" transform="translate(46.726 49.594)">
          <path id="Path_4243" data-name="Path 4243" d="M-1226.676,496.39a3.244,3.244,0,0,0,1.984-.168,3.029,3.029,0,0,1,.752-.385,4.7,4.7,0,0,1,.831-.064,2.637,2.637,0,0,0,.948-.207,3.84,3.84,0,0,0,.745-.5c.424-.331.813-.7,1.22-1.054a5.559,5.559,0,0,1,1.242-.845,6.421,6.421,0,0,1,1.793-.417,12.646,12.646,0,0,0,1.977-.4c.663-.212,1.3-.5,1.965-.708a4.348,4.348,0,0,1,1.749-.27,1.534,1.534,0,0,1,.311.085.678.678,0,0,1,.19.136.549.549,0,0,1,.1.166,1.028,1.028,0,0,1,.042.389c-.019.546.83.545.849,0a1.493,1.493,0,0,0-.664-1.374,2.274,2.274,0,0,0-1.435-.244,8.893,8.893,0,0,0-2.038.519,15.322,15.322,0,0,1-2.048.679c-.7.148-1.412.219-2.112.353a4.578,4.578,0,0,0-1.654.665,11.461,11.461,0,0,0-1.315,1.066c-.205.183-.411.367-.624.54a2.981,2.981,0,0,1-.686.47,2.816,2.816,0,0,1-.96.12,2.629,2.629,0,0,0-1.113.256,2.979,2.979,0,0,1-.8.411,4.7,4.7,0,0,1-1.242-.064.426.426,0,0,0-.424.424.433.433,0,0,0,.424.426Z" transform="translate(1227.1 -490.505)" fill="#222221"/>
        </g>
        <g id="Group_2181" data-name="Group 2181" transform="translate(42.511 56.663)">
          <path id="Path_4244" data-name="Path 4244" d="M-1251.1,534.05c.042-.117.086-.231.134-.346-.014.034-.029.068-.042.1a6.361,6.361,0,0,1,.531-1,.427.427,0,0,0-.153-.58.432.432,0,0,0-.58.153,7,7,0,0,0-.708,1.451.429.429,0,0,0,.3.523.437.437,0,0,0,.521-.3Z" transform="translate(1251.94 -532.168)" fill="#222221"/>
        </g>
        <g id="Group_2182" data-name="Group 2182" transform="translate(48.612 54.641)">
          <path id="Path_4245" data-name="Path 4245" d="M-1215.974,531.9a6.686,6.686,0,0,0,1.866,3.587,18.023,18.023,0,0,0,1.432,1.4,3.24,3.24,0,0,0,1.349.772c1.34.307,2.649-.592,3.75-1.218a5.757,5.757,0,0,1,1.1-.5c.373-.119.757-.2,1.139-.285a5.729,5.729,0,0,0,2.041-.794c1.057-.726,1.809-1.817,2.957-2.42a14.368,14.368,0,0,0,3.646-2.662c.4-.406.764-.84,1.142-1.262.4-.444.792-.892,1.166-1.357a10.743,10.743,0,0,0,1.032-1.466,2.7,2.7,0,0,0,.422-1.5,4.417,4.417,0,0,0-2.265-3.037,5.264,5.264,0,0,0-1.833-.77,10.563,10.563,0,0,0-2.4-.126c-.394.014-.789.029-1.183.029a.424.424,0,0,0,0,.848c1.413,0,2.981-.266,4.306.363a6.008,6.008,0,0,1,1.38.909,3.761,3.761,0,0,1,1.023,1.3,1.565,1.565,0,0,1,.132.723,1.23,1.23,0,0,1-.047.246c-.014.046-.027.09-.044.134-.01.027-.019.053-.029.078a.385.385,0,0,1-.017.041,7.1,7.1,0,0,1-.833,1.329c-.619.821-1.332,1.563-2.006,2.336a13.184,13.184,0,0,1-3.234,2.684,13.4,13.4,0,0,0-1.732,1.067c-.468.378-.881.818-1.322,1.227a4.531,4.531,0,0,1-1.413.959c-.7.268-1.456.353-2.172.57-1.371.417-2.472,1.534-3.909,1.758a1.562,1.562,0,0,1-1.043-.209,6.481,6.481,0,0,1-1.2-1.025,7.8,7.8,0,0,1-2.151-2.98,5.742,5.742,0,0,1-.222-.971.429.429,0,0,0-.523-.3.437.437,0,0,0-.3.524Z" transform="translate(1215.982 -520.248)" fill="#222221"/>
        </g>
        <g id="Group_2183" data-name="Group 2183" transform="translate(51.896 59.667)">
          <path id="Path_4246" data-name="Path 4246" d="M-1195.21,563.142a3.391,3.391,0,0,0-.624-2.374c-.207-.339-.821-.224-.791.214a20.181,20.181,0,0,0,.2,2.07,6.134,6.134,0,0,0,.652,1.831c.18.334.392.648.584.976.178.307.344.619.528.923a4.193,4.193,0,0,0,1.468,1.546c2.779,1.578,6.11.567,8.572-1.127a15.617,15.617,0,0,0,1.743-1.393,10.509,10.509,0,0,1,.825-.728c.307-.227.63-.438.945-.652a5.792,5.792,0,0,0,1.736-1.593c.392-.618.536-1.352.935-1.97.765-1.184,2.006-1.965,2.8-3.134a16.129,16.129,0,0,0,.828-1.536c.309-.587.611-1.181.864-1.8a4.323,4.323,0,0,0,.416-1.653,2.817,2.817,0,0,0-.619-1.729,4,4,0,0,0-2.963-1.122c-.263-.015-.526-.022-.791-.027a.424.424,0,0,0,0,.848,5.159,5.159,0,0,1,2.761.536,1.694,1.694,0,0,1,.7,1.032,1.936,1.936,0,0,1,.052.711c.009-.066-.014.073-.017.09-.012.063-.027.126-.042.188-.034.134-.075.268-.12.4a26.261,26.261,0,0,1-1.471,3.059,14.906,14.906,0,0,1-2.542,2.939,6.064,6.064,0,0,0-1.1,1.834,5.075,5.075,0,0,1-.4.869,3.36,3.36,0,0,1-.733.794c-.54.448-1.159.794-1.719,1.217s-1.057.947-1.607,1.4c-2.06,1.693-4.9,3.066-7.6,2.24a3.628,3.628,0,0,1-1.717-1.006,10.313,10.313,0,0,1-1.032-1.648,9.618,9.618,0,0,1-.9-1.714,6.743,6.743,0,0,1-.309-1.646c-.029-.343-.049-.687-.075-1.03l-.791.214a2.6,2.6,0,0,1,.539,1.721.437.437,0,0,0,.3.523.429.429,0,0,0,.526-.3Z" transform="translate(1196.627 -549.87)" fill="#222221"/>
        </g>
        <g id="Group_2184" data-name="Group 2184" transform="translate(61.336 67.989)">
          <path id="Path_4247" data-name="Path 4247" d="M-1140.994,609.29a3.527,3.527,0,0,0,.47,1.955,2.81,2.81,0,0,0,1.369,1.1,5.746,5.746,0,0,0,3.7-.076,7.557,7.557,0,0,0,3.263-1.892c1.272-1.323,2.888-2.367,3.734-4.048.263-.521.4-1.076.618-1.614.224-.565.536-1.093.762-1.658a9.55,9.55,0,0,0,.222-3.731.424.424,0,0,0-.848,0,10.54,10.54,0,0,1-.053,3.109,9.535,9.535,0,0,1-.6,1.376,13.866,13.866,0,0,0-.557,1.442,6,6,0,0,1-1.317,2.109c-.594.629-1.269,1.174-1.9,1.765-.292.273-.563.568-.854.845a4.16,4.16,0,0,1-.57.463,7.674,7.674,0,0,1-.75.453,7.466,7.466,0,0,1-.774.355,8.11,8.11,0,0,1-1.748.468c-.134.02.083-.008-.051.007-.041.005-.081.01-.122.014-.068.007-.134.012-.2.017-.144.01-.29.015-.436.014s-.282-.008-.423-.022c-.025,0-.049-.005-.075-.008-.124-.014.087.015-.036-.005-.073-.012-.144-.024-.217-.039a3.153,3.153,0,0,1-.412-.114l-.1-.036c-.109-.041.078.037-.026-.01-.063-.029-.124-.058-.183-.09s-.117-.066-.175-.1c-.029-.019-.056-.037-.083-.058-.068-.047.047.046-.034-.025a2.743,2.743,0,0,1-.3-.3c-.051-.059-.007-.007,0,.005-.027-.037-.054-.075-.08-.114-.039-.059-.075-.12-.109-.183l-.041-.081c-.009-.017-.059-.137-.024-.051-.029-.071-.054-.144-.076-.217a2.934,2.934,0,0,1-.124-1.023.422.422,0,0,0-.843,0Z" transform="translate(1140.995 -598.915)" fill="#222221"/>
        </g>
        <g id="Group_2185" data-name="Group 2185" transform="translate(72.963 62.705)">
          <path id="Path_4248" data-name="Path 4248" d="M-1072.452,581.887c.363,1.437,1.95,1.573,3.187,1.512.579-.029,1.152-.081,1.731-.1a5.466,5.466,0,0,0,2.094-.553,4.71,4.71,0,0,0,1.81-1.334,2.944,2.944,0,0,0,.434-2.131c-.031-.392-.08-.782-.105-1.176-.031-.448-.008-.9-.017-1.349a11.119,11.119,0,0,0-.5-3.073c-.177-.577-.38-1.147-.587-1.715a11.778,11.778,0,0,0-.645-1.61c-.463-.862-1.186-1.547-1.693-2.382a.428.428,0,0,0-.791.214c-.061,2.581,1.748,4.614,2.282,7.048.117.533.935.307.818-.226-.514-2.342-2.309-4.35-2.252-6.823l-.791.214c.426.7,1,1.288,1.446,1.968a11.338,11.338,0,0,1,1.072,2.562,12.543,12.543,0,0,1,.735,2.812c.088.857.019,1.717.093,2.574a6.927,6.927,0,0,1,.063,2.126,1.436,1.436,0,0,1-.385.628,3.664,3.664,0,0,1-.735.577,5.685,5.685,0,0,1-1.87.742,14.9,14.9,0,0,1-1.547.107c-.333.025-.665.049-1,.056a5.612,5.612,0,0,1-.913-.046,1.7,1.7,0,0,1-.767-.283c-.061-.041.07.065-.022-.017-.029-.025-.058-.053-.085-.08s-.036-.037-.053-.058c-.08-.092.037.063-.031-.041a.922.922,0,0,1-.159-.375.425.425,0,0,0-.818.227Z" transform="translate(1072.467 -567.778)" fill="#222221"/>
        </g>
        <g id="Group_2186" data-name="Group 2186" transform="translate(79.602 66.493)">
          <path id="Path_4249" data-name="Path 4249" d="M-1032.5,591.013c.042-.122.083-.243.126-.365l-.709.187c.628.8,1.276,1.588,1.909,2.386.572.719,1.11,1.463,1.66,2.2a17.6,17.6,0,0,0,1.67,1.97,7.1,7.1,0,0,0,1.926,1.449,10.557,10.557,0,0,0,3.242.8,9.585,9.585,0,0,0,3.572-.17,3.548,3.548,0,0,0,2.661-2.369.424.424,0,0,0-.818-.226,1.923,1.923,0,0,1-.271.619,2.03,2.03,0,0,1-.421.482,1.343,1.343,0,0,1-.229.175c-.1.068-.207.129-.314.187a3.165,3.165,0,0,1-.641.26,8.336,8.336,0,0,1-3.275.221,11.723,11.723,0,0,1-2.881-.631,5.364,5.364,0,0,1-1.753-1.206,15.23,15.23,0,0,1-1.581-1.788c-.6-.791-1.176-1.6-1.793-2.382-.682-.862-1.381-1.71-2.06-2.576-.212-.271-.618-.081-.709.187-.042.122-.083.243-.125.365a.429.429,0,0,0,.3.523.431.431,0,0,0,.521-.3Z" transform="translate(1033.34 -590.102)" fill="#222221"/>
        </g>
        <g id="Group_2187" data-name="Group 2187" transform="translate(91.4 47.986)">
          <path id="Path_4250" data-name="Path 4250" d="M-959.126,507.4a4.471,4.471,0,0,1,1.13.139c.441.092.879.2,1.32.292a4.507,4.507,0,0,0,2.7-.046,3.262,3.262,0,0,0,1.575-2.666,18.852,18.852,0,0,0,.3-2.406,10.961,10.961,0,0,0-.036-2.238,11.546,11.546,0,0,0-1.447-3.55,29.453,29.453,0,0,0-2.36-3.69c-1.675-2.313-3.48-4.585-4.456-7.3-.214-.6-.421-1.208-.58-1.822-.1-.392-.18-.787-.29-1.178-.226-.8-.624-1.807-1.575-1.9a1.45,1.45,0,0,0-.657.1.431.431,0,0,0-.253.623c.3.568.64,1.113.947,1.676a10.289,10.289,0,0,1,.75,1.724,8.932,8.932,0,0,0,1.525,3.293.43.43,0,0,0,.6,0,.433.433,0,0,0,0-.6,8.741,8.741,0,0,1-1.373-3.114,24.1,24.1,0,0,0-1.717-3.409c-.085.207-.17.416-.253.623a1.3,1.3,0,0,1,.288-.083c-.08.01.029.005.056,0s.036,0,.053,0c-.058,0-.041-.012.007,0s.075.02.112.034c-.07-.027-.014-.005.019.015.012.008.105.073.068.044s.054.053.073.071a1.123,1.123,0,0,1,.083.1c-.049-.061.019.031.032.051a2.424,2.424,0,0,1,.146.26,1.449,1.449,0,0,1,.083.188c.037.1.075.205.107.309.12.382.207.775.3,1.164.122.517.288,1.025.456,1.529a18.19,18.19,0,0,0,1.688,3.675c.721,1.2,1.549,2.326,2.375,3.453s1.661,2.262,2.384,3.463c.361.6.677,1.22,1,1.841a12.463,12.463,0,0,1,.733,1.571,9.063,9.063,0,0,1,.188,3.989,14.21,14.21,0,0,1-.4,2.165,1.979,1.979,0,0,1-.6,1.042c-.051.044.022-.008-.054.041-.032.02-.064.042-.1.063s-.078.044-.119.064c-.022.012-.046.022-.07.032.039-.017.027-.012-.007,0-.086.031-.173.056-.261.078-.046.01-.09.019-.136.027a.294.294,0,0,1-.087.012,4.238,4.238,0,0,1-.587.007c-.1-.007-.2-.017-.305-.027-.022,0-.044-.005-.066-.008.063.008-.012,0-.02,0-.059-.008-.12-.019-.18-.029-.864-.144-1.7-.406-2.572-.509a3.985,3.985,0,0,0-.533-.032.423.423,0,0,0-.007.847Z" transform="translate(963.811 -481.027)" fill="#222221"/>
        </g>
        <g id="Group_2188" data-name="Group 2188" transform="translate(103.425 69.635)">
          <path id="Path_4251" data-name="Path 4251" d="M-892.528,609.468a.424.424,0,0,0,0-.848.424.424,0,0,0,0,.848Z" transform="translate(892.939 -608.62)" fill="#222221"/>
        </g>
        <g id="Group_2189" data-name="Group 2189" transform="translate(103.405 51.927)">
          <path id="Path_4252" data-name="Path 4252" d="M-892.844,522.754a35.833,35.833,0,0,0,3.65,1.882,2.892,2.892,0,0,0,1.719.176,1.794,1.794,0,0,0,1.186-1.281,4.671,4.671,0,0,0,.175-1.281c.012-.629,0-1.262-.005-1.892,0-.655.029-1.317-.014-1.968a10.363,10.363,0,0,0-.256-1.6,11.6,11.6,0,0,1-.314-1.682c-.051-.638-.039-1.279-.136-1.914a14.378,14.378,0,0,0-.482-1.841c-.178-.616-.373-1.234-.516-1.86-.132-.579-.2-1.171-.314-1.753a3.337,3.337,0,0,0-.638-1.553,5.31,5.31,0,0,0-1.079-.852,2.685,2.685,0,0,1-.448-.356.772.772,0,0,1-.244-.422c-.12-.533-.938-.307-.818.226.188.83,1.016,1.195,1.631,1.666a1.6,1.6,0,0,1,.587.781,9.116,9.116,0,0,1,.324,1.491,29.251,29.251,0,0,0,.859,3.416,8.168,8.168,0,0,1,.361,1.721c.042.616.037,1.23.132,1.841a21.236,21.236,0,0,1,.518,3.107c0,.63,0,1.257,0,1.887,0,.6.027,1.2-.007,1.8a2.951,2.951,0,0,1-.2,1c.032-.078-.039.076-.051.1-.031.054-.064.105-.1.156s.068-.071,0,0c-.022.022-.041.046-.063.068l-.066.061c-.073.064.075-.046-.007.005-.049.031-.1.058-.149.085-.083.044.068-.022.008,0-.024.007-.046.015-.068.024a1.458,1.458,0,0,1-.171.039c.124-.024-.061,0-.1,0-.058,0-.117,0-.175,0-.031,0-.214-.025-.1-.008a3.556,3.556,0,0,1-.419-.093,8.959,8.959,0,0,1-1.9-.864c-.626-.348-1.24-.721-1.882-1.04-.489-.243-.918.489-.429.731Z" transform="translate(893.06 -504.257)" fill="#222221"/>
        </g>
        <g id="Group_2190" data-name="Group 2190" transform="translate(67.351 17.513)">
          <path id="Path_4253" data-name="Path 4253" d="M-1102.161,310.946a.9.9,0,0,1-.444-.219,1.872,1.872,0,0,1-.367-.463,8.5,8.5,0,0,1-.521-1.125,12.2,12.2,0,0,1-1.183-2.812,1.715,1.715,0,0,1,.244-1.11,6.464,6.464,0,0,1,.859-1.2,4.821,4.821,0,0,1,2.258-1.656,3.4,3.4,0,0,1,2.93.814,15.3,15.3,0,0,1,2.42,2.462c.8.965,1.551,1.97,2.408,2.884a8.357,8.357,0,0,0,2.722,2.073,11.032,11.032,0,0,0,1.437.49,4.745,4.745,0,0,1,1.481.546,7.339,7.339,0,0,0,1.32.835c.422.173.874.282,1.281.49a1.248,1.248,0,0,1,.455.353.427.427,0,0,0,.6,0,.437.437,0,0,0,0-.6,2.844,2.844,0,0,0-1.31-.772,5.094,5.094,0,0,1-1.315-.6,4.834,4.834,0,0,0-1.5-.862c-.529-.146-1.062-.277-1.581-.455a7.039,7.039,0,0,1-2.774-1.883c-.92-.945-1.712-2-2.549-3.019a16.118,16.118,0,0,0-2.608-2.638,4.309,4.309,0,0,0-3.361-1,4.963,4.963,0,0,0-2.688,1.687,5.056,5.056,0,0,0-1.581,2.725,6.29,6.29,0,0,0,1.065,3.136c.2.4.338.811.547,1.251a3.077,3.077,0,0,0,.894,1.188,1.641,1.641,0,0,0,.638.29c.533.114.76-.7.226-.816Z" transform="translate(1105.541 -301.436)" fill="#222221"/>
        </g>
        <g id="Group_2191" data-name="Group 2191" transform="translate(76.852 20.913)">
          <path id="Path_4254" data-name="Path 4254" d="M-1049.139,322.326h2.506c.826,0,1.658-.027,2.482.015a20.76,20.76,0,0,1,2.17.27c.746.119,1.49.2,2.241.271a4.34,4.34,0,0,1,2.842,1.247,4.7,4.7,0,0,1,.855,1.4,5.131,5.131,0,0,1,.243.714,1.6,1.6,0,0,1,.07.521c0,.056,0,.11-.008.165.008-.09-.005.027-.012.061s-.024.088-.036.132c-.034.11.017-.008-.029.07-.022.039-.042.08-.066.117-.012.019-.025.037-.039.056-.036.051.066-.071-.008.01a1.708,1.708,0,0,1-.212.2c.059-.048-.056.037-.075.049-.053.034-.109.066-.165.1a2.244,2.244,0,0,1-.305.141,6.246,6.246,0,0,1-.942.263.43.43,0,0,0-.3.523.435.435,0,0,0,.523.3c.96-.2,2.126-.585,2.442-1.632a2.54,2.54,0,0,0-.046-1.388,6.4,6.4,0,0,0-.742-1.687,4.682,4.682,0,0,0-2.963-2.055c-.711-.165-1.442-.173-2.163-.266-.787-.1-1.569-.255-2.359-.351a23.986,23.986,0,0,0-2.9-.1h-3.008a.426.426,0,0,0,0,.852Z" transform="translate(1049.55 -321.474)" fill="#222221"/>
        </g>
        <g id="Group_2192" data-name="Group 2192" transform="translate(87.356 0.285)">
          <path id="Path_4255" data-name="Path 4255" d="M-987.216,229.13a14.813,14.813,0,0,0,4.642-.283,17.409,17.409,0,0,0,4.4-2.033c1.434-.809,2.9-1.544,4.308-2.4.689-.421,1.369-.857,2.053-1.288.7-.445,1.444-.848,2.133-1.313a6.43,6.43,0,0,0,1.52-1.5c.462-.611.8-1.3,1.2-1.945.821-1.315,1.766-2.545,2.681-3.794a17.1,17.1,0,0,1,1.444-1.848,15.012,15.012,0,0,0,1.522-1.663c.217-.305.4-.636.618-.942s.434-.575.665-.853c.473-.572.971-1.125,1.432-1.705s.9-1.188,1.417-1.734a19.429,19.429,0,0,1,1.6-1.505c.567-.482,1.152-.94,1.736-1.4a18.983,18.983,0,0,0,1.768-1.488c.273-.273.545-.545.818-.816a.425.425,0,0,0-.6-.6,20.354,20.354,0,0,1-1.68,1.59c-.585.467-1.178.921-1.761,1.388a20.375,20.375,0,0,0-3.149,2.991c-.478.59-.926,1.2-1.42,1.78-.48.563-.965,1.123-1.408,1.717-.222.3-.433.606-.626.923a5.1,5.1,0,0,1-.679.848c-.5.533-1.05,1.025-1.5,1.607-.5.643-.955,1.318-1.439,1.973-.455.616-.911,1.232-1.349,1.861s-.848,1.257-1.227,1.914c-.187.324-.355.655-.57.962a7.353,7.353,0,0,1-.628.786,4.873,4.873,0,0,1-.753.67c-.329.232-.694.422-1.037.633-.687.421-1.368.855-2.05,1.286s-1.347.845-2.033,1.245c-.721.421-1.463.8-2.2,1.195-.709.382-1.408.786-2.111,1.179a16.4,16.4,0,0,1-2.172,1.1,11.849,11.849,0,0,1-4.466.665c-.368-.008-.738-.031-1.1-.059a.428.428,0,0,0-.424.424.434.434,0,0,0,.424.428Z" transform="translate(987.64 -199.898)" fill="#222221"/>
        </g>
        <g id="Group_2193" data-name="Group 2193" transform="translate(103.368 18.435)">
          <path id="Path_4256" data-name="Path 4256" d="M-893.231,309.777l-.041.365a.427.427,0,0,0,.791.214A4.949,4.949,0,0,1-891.4,308.9c.446-.45.93-.86,1.378-1.307l-.6-.6-.823.823a.433.433,0,0,0,0,.6.43.43,0,0,0,.6,0l.823-.823a.433.433,0,0,0,0-.6.43.43,0,0,0-.6,0,11.108,11.108,0,0,0-2.593,2.935l.791.214.041-.365a.428.428,0,0,0-.424-.424.433.433,0,0,0-.422.424Z" transform="translate(893.274 -306.87)" fill="#222221"/>
        </g>
        <g id="Group_2194" data-name="Group 2194" transform="translate(104.519 19.225)">
          <path id="Path_4257" data-name="Path 4257" d="M-885.956,312.942a4.367,4.367,0,0,0,1.573-.626.432.432,0,0,0,.2-.478.43.43,0,0,0-.409-.312l-.365.031a.46.46,0,0,0-.3.124.429.429,0,0,0-.124.3.429.429,0,0,0,.424.424l.365-.031-.214-.791c-.11.07-.224.136-.339.2q-.094.048-.188.092l-.071.032c-.042.019-.032.014.029-.012l-.049.02a3.725,3.725,0,0,1-.752.214.422.422,0,0,0-.253.2.434.434,0,0,0-.042.327.433.433,0,0,0,.521.3Z" transform="translate(886.493 -311.524)" fill="#222221"/>
        </g>
        <g id="Group_2195" data-name="Group 2195" transform="translate(107.834 49.781)">
          <path id="Path_4258" data-name="Path 4258" d="M-866.228,499.451a32.979,32.979,0,0,1,8.8-5.693c.989-.472,1.99-.923,2.991-1.369a.429.429,0,0,0,.153-.58.435.435,0,0,0-.58-.153,49.6,49.6,0,0,0-9.636,5.233,24.467,24.467,0,0,0-2.33,1.961c-.394.38.207.979.6.6Z" transform="translate(866.957 -491.606)" fill="#222221"/>
        </g>
        <g id="Group_2196" data-name="Group 2196" transform="translate(39.421 14.243)">
          <path id="Path_4259" data-name="Path 4259" d="M-1268.6,283.471a35.37,35.37,0,0,0,7.951,6.95,43.961,43.961,0,0,0,4.593,2.579c1.644.8,3.341,1.474,5.029,2.177a31.842,31.842,0,0,0,6.29,2.143.427.427,0,0,0,.328-.775c-.745-.562-1.676-.385-2.513-.672-.441-.151-.847-.387-1.273-.574-.451-.2-.927-.327-1.393-.482a32.29,32.29,0,0,1-5.073-2.2c-1.7-.911-3.338-1.946-4.97-2.973s-3.251-2.092-4.815-3.229a48.23,48.23,0,0,1-4.992-4.132l-.3.725.334.029a.427.427,0,0,0,.424-.424.433.433,0,0,0-.424-.424l-.334-.029a.428.428,0,0,0-.3.725,60.121,60.121,0,0,0,9.3,7.06,52.03,52.03,0,0,0,10.111,5.4c.511.185,1.028.356,1.547.518a13.133,13.133,0,0,1,1.42.614,4.953,4.953,0,0,0,1.526.406,2.449,2.449,0,0,1,1.3.39c.109-.258.217-.518.327-.775a28.423,28.423,0,0,1-5.576-1.846c-1.666-.691-3.348-1.347-4.978-2.118a40.564,40.564,0,0,1-8.769-5.5,33.51,33.51,0,0,1-4.166-4.162.427.427,0,0,0-.6,0,.43.43,0,0,0,0,.6Z" transform="translate(1270.151 -282.161)" fill="#222221"/>
        </g>
        <g id="Group_2197" data-name="Group 2197" transform="translate(33.432 49.423)">
          <path id="Path_4260" data-name="Path 4260" d="M-1305.321,490.222c1.166,1.025,2.669,1.383,3.992,2.136a15.51,15.51,0,0,1,1.831,1.434,10.327,10.327,0,0,0,2.143,1.14,4.417,4.417,0,0,0,2.638.667.43.43,0,0,0,.3-.523.434.434,0,0,0-.523-.3,3.632,3.632,0,0,1-2.017-.6,9.482,9.482,0,0,1-2-1.038,18.427,18.427,0,0,0-1.768-1.417,15.327,15.327,0,0,0-1.936-.923,7.616,7.616,0,0,1-2.062-1.184.435.435,0,0,0-.6,0,.428.428,0,0,0,0,.6Z" transform="translate(1305.444 -489.501)" fill="#222221"/>
        </g>
        <g id="Group_2198" data-name="Group 2198" transform="translate(33.424 49.457)">
          <path id="Path_4261" data-name="Path 4261" d="M-1293.213,494.927a17.063,17.063,0,0,1-3.75.419l.214.058a44.879,44.879,0,0,1-8.022-5.587.438.438,0,0,0-.6,0,.428.428,0,0,0,0,.6c1.427,1.162,2.861,2.319,4.362,3.382.74.524,1.5,1.025,2.279,1.488q.563.333,1.144.64a1.881,1.881,0,0,0,.663.271,5.3,5.3,0,0,0,.714.019c1.015-.034,1.994-.312,3-.441a.438.438,0,0,0,.424-.424.427.427,0,0,0-.424-.424Z" transform="translate(1305.495 -489.697)" fill="#222221"/>
        </g>
        <g id="Group_2199" data-name="Group 2199" transform="translate(55.791 51.96)">
          <path id="Path_4262" data-name="Path 4262" d="M-1166.186,508.042a2.714,2.714,0,0,0-1.074-1.427c-.467-.366-.906-.747-1.344-1.147a4.013,4.013,0,0,0-1.391-.942,1.74,1.74,0,0,0-1.6.333,6.19,6.19,0,0,0-1.787,2.756,3.084,3.084,0,0,0-.28,1.34,2.407,2.407,0,0,0,.7,1.4,7.163,7.163,0,0,0,1.43,1.079,9.08,9.08,0,0,1,1.315.893c.4.37,1-.229.6-.6-.682-.63-1.556-1-2.289-1.564a2.661,2.661,0,0,1-.809-.9,1.332,1.332,0,0,1-.08-.226c-.007-.024-.032-.165-.022-.08a.9.9,0,0,1-.005-.117c0-.042,0-.087.007-.129.007-.078-.009.034.007-.048.019-.1.043-.207.071-.309a6.736,6.736,0,0,1,.528-1.293c.109-.21.224-.417.348-.619.053-.085.107-.17.165-.253.024-.036.047-.07.073-.1s.031-.042.047-.064c-.024.032-.022.027,0,0a2.617,2.617,0,0,1,.585-.551.931.931,0,0,1,.526-.17,1.061,1.061,0,0,1,.474.156,3.4,3.4,0,0,1,.546.4c.468.406.9.838,1.395,1.217a2.437,2.437,0,0,1,1.049,1.2c.126.526.943.3.814-.229Z" transform="translate(1173.672 -504.45)" fill="#222221"/>
        </g>
        <g id="Group_2200" data-name="Group 2200" transform="translate(62.902 58.47)">
          <path id="Path_4263" data-name="Path 4263" d="M-1125.705,545.124c-.024,0-.163-.022-.063,0q-.069-.013-.137-.031c-.041-.012-.08-.025-.119-.039-.012,0-.081-.034-.034-.012s-.051-.025-.051-.025q-.127-.066-.249-.143l-.115-.078-.066-.047c-.105-.076.031.025-.029-.02-.356-.282-.674-.606-1.008-.913-.631-.58-1.461-1.228-2.374-.911a2.959,2.959,0,0,0-1.744,2.3,4.035,4.035,0,0,0,.494,2.81,2.808,2.808,0,0,0,1.11,1.049,2.76,2.76,0,0,0,1.729.216.43.43,0,0,0,.3-.523.436.436,0,0,0-.523-.3,1.628,1.628,0,0,1-.266.025,2.173,2.173,0,0,1-.333-.014c-.073-.008.056.01-.014,0-.02,0-.042-.007-.063-.012-.047-.01-.1-.02-.143-.034s-.092-.027-.137-.042c-.025-.008-.051-.019-.076-.029.041.017.017.007-.01-.005a2.162,2.162,0,0,1-.244-.136c-.039-.026-.078-.051-.115-.08l.007.005c-.025-.02-.051-.042-.076-.064a2.184,2.184,0,0,1-.346-.383,2.674,2.674,0,0,1-.445-1.059,2.527,2.527,0,0,1-.068-.555c0-.1,0-.2,0-.305q0-.076.01-.153c0-.022.02-.17.01-.1a3.25,3.25,0,0,1,.151-.606,1.394,1.394,0,0,1,.088-.214,2.631,2.631,0,0,1,.156-.278,2.056,2.056,0,0,1,.39-.451.986.986,0,0,1,.193-.148c.047-.031.1-.056.146-.081l.022-.01c-.044.019.058-.019.056-.019.036-.01.071-.02.107-.029l.07-.014c-.017,0-.087.005-.009,0,.034,0,.07,0,.1,0s.151.02.058,0a2.316,2.316,0,0,1,.236.063c.066.022-.039-.024.047.019.049.025.1.049.148.076.073.041.143.086.212.134a1.778,1.778,0,0,1,.188.141c.16.131.312.27.463.411a4.048,4.048,0,0,0,2.359,1.459c.55.029.548-.82.005-.845Z" transform="translate(1131.761 -542.818)" fill="#222221"/>
        </g>
        <g id="Group_2201" data-name="Group 2201" transform="translate(68.282 63.591)">
          <path id="Path_4264" data-name="Path 4264" d="M-1095.65,575.149a1.619,1.619,0,0,0-.129-1.259,1.809,1.809,0,0,0-.943-.733,2.734,2.734,0,0,0-2.347.239,2.468,2.468,0,0,0-.957,2.075,9.823,9.823,0,0,0,.19,2.827c.171.791.534,1.936,1.451,2.129a.436.436,0,0,0,.522-.3.43.43,0,0,0-.3-.523c-.027-.005-.054-.014-.08-.02l-.053-.019s.078.037.037.015-.173-.119-.093-.049a1.837,1.837,0,0,1-.143-.137c-.01-.012-.07-.087-.037-.044a.893.893,0,0,0-.054-.081,2.765,2.765,0,0,1-.363-.891,8.336,8.336,0,0,1-.258-2.409c0-.187.014-.375.029-.56.007-.085.017-.171.027-.256-.01.075,0-.005.005-.036l.021-.122a3.666,3.666,0,0,1,.1-.4c.008-.031.036-.087.007-.025.015-.032.031-.065.049-.1s.037-.061.056-.09c.041-.066.007-.014,0,0a.7.7,0,0,1,.046-.054,1.558,1.558,0,0,1,.153-.148c.051-.046-.037.02.042-.031.036-.022.07-.046.107-.068s.063-.036.1-.053l.083-.039a.657.657,0,0,0,.071-.025c.041-.014.083-.027.125-.039.08-.022.159-.037.239-.054.019,0,.037-.007.056-.008-.007,0-.07.008-.019,0s.1-.01.151-.012c.076,0,.151,0,.227,0,.044,0,.088.005.131.008.019,0,.037,0,.056.007.066.008-.068-.012,0,0,.09.017.178.036.266.061l.119.039c.093.031-.027-.02.059.026.07.037.137.076.2.119s-.022-.032.042.034c.025.027.054.053.08.078s.02.024.032.036c.039.044-.041-.059-.009-.01s.044.073.066.109c.051.076,0-.032.017.031.014.042.026.083.037.126,0,.017.007.034.01.049.012.061-.005-.073,0-.01,0,.042,0,.083,0,.126,0,.027-.019.16-.005.078-.01.054-.022.109-.037.163a.424.424,0,0,0,.816.229Z" transform="translate(1100.056 -572.997)" fill="#222221"/>
        </g>
        <g id="Group_2202" data-name="Group 2202" transform="translate(102.31 20.909)">
          <path id="Path_4265" data-name="Path 4265" d="M-881.315,350.419a25.085,25.085,0,0,0-3.65-5.6,15.183,15.183,0,0,1-2.18-2.36,22.352,22.352,0,0,1-1.133-2.954,39.283,39.283,0,0,0-3.372-5.733c-.621-.993-1.088-2.058-1.607-3.1a17.385,17.385,0,0,0-1.8-2.761A16,16,0,0,1-897,324.685a10.536,10.536,0,0,0-1.79-3.1c-.373-.4-.972.2-.6.6a9.133,9.133,0,0,1,1.542,2.669,15.921,15.921,0,0,0,1.634,2.9c.64.9,1.339,1.749,1.889,2.711.578,1.011,1,2.1,1.576,3.117.546.971,1.2,1.88,1.807,2.813a23.709,23.709,0,0,1,1.619,2.822c.46.981.706,2.033,1.128,3.025a7.936,7.936,0,0,0,2.005,2.545,22.458,22.458,0,0,1,4.144,6.056c.251.484.984.056.733-.429Z" transform="translate(899.51 -321.452)" fill="#222221"/>
        </g>
        <g id="Group_2203" data-name="Group 2203" transform="translate(119.9 50.024)">
          <path id="Path_4266" data-name="Path 4266" d="M-794.69,493.97c-.12-.241-.241-.482-.365-.723a.434.434,0,0,0-.253-.2.44.44,0,0,0-.328.042.434.434,0,0,0-.2.253.468.468,0,0,0,.042.327c.122.241.244.482.365.723a.435.435,0,0,0,.253.2.44.44,0,0,0,.328-.042.435.435,0,0,0,.2-.253l.015-.112a.431.431,0,0,0-.058-.215Z" transform="translate(795.843 -493.038)" fill="#222221"/>
        </g>
        <g id="Group_2204" data-name="Group 2204" transform="translate(120.979 45.214)">
          <path id="Path_4267" data-name="Path 4267" d="M-788.823,472.913c.6,1.122,1.739,2.745,3.237,2.235a5.093,5.093,0,0,0,1.166-.708c.409-.28.826-.55,1.249-.809.831-.512,1.685-.988,2.554-1.435,1.722-.891,3.5-1.675,5.267-2.462.9-.4,1.79-.8,2.679-1.211.426-.2.843-.426,1.281-.6a11.885,11.885,0,0,1,1.339-.421c1.018-.26,2.068-.383,3.085-.648a5.143,5.143,0,0,0,.645-.282c.117-.049.239-.087.356-.132a1.969,1.969,0,0,0,.38-.229l.769-.512c.046-.031.095-.061.139-.093.073-.08.1-.1.083-.059l0,.005a.449.449,0,0,1,.193,0V464.7a6.964,6.964,0,0,0-1.1.059.441.441,0,0,0-.251.781.91.91,0,0,0,.6.11,4.653,4.653,0,0,0,.865-.115.426.426,0,0,0-.112-.833,15.811,15.811,0,0,0-5.565,1.29c-1.809.669-3.584,1.43-5.321,2.269a24.531,24.531,0,0,0-2.464,1.385c-.775.49-1.541,1-2.323,1.48-.4.246-.8.485-1.217.711a5.8,5.8,0,0,1-1.215.585,22.36,22.36,0,0,0-2.742.577c-.4.163-.755.392-1.137.582a1.518,1.518,0,0,1-1.05.2c-.718-.231-1.011-1.116-1.208-1.76-.16-.521-.979-.3-.818.226a3.893,3.893,0,0,0,1.133,1.985,1.757,1.757,0,0,0,1.161.423,2.858,2.858,0,0,0,1.159-.319c.341-.165.658-.375,1-.529a5.4,5.4,0,0,1,1.349-.322,11.641,11.641,0,0,0,1.41-.258,6.605,6.605,0,0,0,1.313-.624c1.675-.913,3.22-2.041,4.87-3a29.382,29.382,0,0,1,2.671-1.3q1.316-.6,2.662-1.122c1.026-.4,2.065-.786,3.117-1.113a10.481,10.481,0,0,1,3.209-.521l-.112-.833q-.084.02-.168.036c-.034.007-.07.012-.1.017l-.044.007c.026,0-.088.01-.117.012-.053.005-.105.008-.158.012-.076,0-.151.007-.227,0a.4.4,0,0,0-.09-.005c-.034.007.095.015.071.008-.119-.031.173.08.221.18.014.109.029.217.042.327v0c-.036.063-.073.126-.109.187-.025.027-.246.139-.1.083-.109.042-.054.005-.008,0l.129-.01c.256-.019.514-.02.772-.024a.431.431,0,0,0,.424-.424.435.435,0,0,0-.424-.424,1.659,1.659,0,0,0-1.122.453l-.63.419a4.332,4.332,0,0,1-.651.292,2.177,2.177,0,0,1-.467.19c-.253.049-.5.109-.757.159-.445.088-.893.171-1.337.263a12.052,12.052,0,0,0-2.676.808c-.87.407-1.737.818-2.613,1.211a65.234,65.234,0,0,0-10.13,5.163,3.743,3.743,0,0,1-1.183.711,1.071,1.071,0,0,1-.809-.209,4.523,4.523,0,0,1-1.317-1.68c-.255-.48-.986-.053-.728.429Z" transform="translate(789.483 -464.695)" fill="#222221"/>
        </g>
        <g id="Group_2205" data-name="Group 2205" transform="translate(103.411 23.131)">
          <path id="Path_4268" data-name="Path 4268" d="M-892.9,335.268c.7.713,1.49,1.342,2.141,2.1a13.542,13.542,0,0,1,1.58,2.508c.492.93.952,1.878,1.43,2.815s1,1.863,1.544,2.776c2.189,3.706,4.252,7.483,6.37,11.229q1.764,3.118,3.711,6.124c.3.456,1.032.031.733-.428-2.355-3.616-4.423-7.4-6.533-11.156-1.057-1.883-2.121-3.762-3.212-5.625-.54-.92-1.089-1.829-1.585-2.774s-.947-1.878-1.427-2.815a18.291,18.291,0,0,0-1.771-2.957,28.9,28.9,0,0,0-2.382-2.4c-.383-.39-.984.209-.6.6Z" transform="translate(893.021 -334.542)" fill="#222221"/>
        </g>
        <g id="Group_2206" data-name="Group 2206" transform="translate(119.985 50.815)">
          <path id="Path_4269" data-name="Path 4269" d="M-795.291,498.012a2,2,0,0,0,.4,1.639c.149.219.312.429.451.657.032.054.064.109.093.165.014.025.027.051.039.076s.041.092.014.024a2.033,2.033,0,0,1,.066.2c.008.034.017.066.024.1s.019.127.007.025a.435.435,0,0,0,.424.424c.209-.008.451-.188.424-.424a3.315,3.315,0,0,0-.709-1.53,3.729,3.729,0,0,1-.38-.626c.044.1,0,0,0-.017a.916.916,0,0,1-.027-.09c-.007-.025-.012-.051-.019-.076-.014-.054-.007-.049,0,0a1.484,1.484,0,0,1-.005-.193c0-.027.024-.122,0-.022.008-.034.014-.07.024-.1a.431.431,0,0,0-.3-.523.432.432,0,0,0-.523.3Z" transform="translate(795.341 -497.704)" fill="#222221"/>
        </g>
        <g id="Group_2207" data-name="Group 2207" transform="translate(33.414 22.794)">
          <path id="Path_4270" data-name="Path 4270" d="M-1304.827,359.3a107.534,107.534,0,0,0,9.061-9.325c.686-.86,1.341-1.746,1.941-2.667a29.437,29.437,0,0,0,1.656-2.988,19.64,19.64,0,0,1,1.619-2.839c.609-.842,1.31-1.61,1.994-2.392,1.473-1.685,3.178-3.855,2.265-6.225a.434.434,0,0,0-.623-.253,6.56,6.56,0,0,1-.921.3.424.424,0,0,0,.226.818,8.008,8.008,0,0,0,1.125-.387l-.623-.253c.755,1.96-.63,3.763-1.849,5.173-.68.784-1.378,1.553-2.012,2.375a16.839,16.839,0,0,0-1.678,2.749c-.5.987-.974,1.983-1.551,2.929a29.943,29.943,0,0,1-1.851,2.662,50.312,50.312,0,0,1-4.211,4.705c-1.693,1.7-3.453,3.334-5.163,5.017-.392.382.209.982.6.6Z" transform="translate(1305.552 -332.561)" fill="#222221"/>
        </g>
        <g id="Group_2208" data-name="Group 2208" transform="translate(0 23.681)">
          <path id="Path_4271" data-name="Path 4271" d="M-1451.238,338.64c-.107-.012-.012.005.01.012-.126-.031.01.02-.048-.02s.051.078-.036-.039c.012.017.063.107.008,0a.2.2,0,0,1,.017.059c.007.11,0-.1.005.02a1.5,1.5,0,0,1,0,.229c-.009.131.008-.046,0,.036-.005.037-.012.073-.019.11-.015.078-.032.154-.052.231-.048.188-.109.375-.175.558a17.53,17.53,0,0,1-.757,1.709,36.109,36.109,0,0,1-4.242,6.921c-1.663,2.08-3.48,4.038-4.958,6.263-.731,1.1-1.351,2.27-2.1,3.358a23.375,23.375,0,0,1-2.63,2.927,12.727,12.727,0,0,0-1.249,1.454,15.564,15.564,0,0,0-.964,1.631,12.675,12.675,0,0,1-.955,1.581,7.939,7.939,0,0,1-1.176,1.2,11.052,11.052,0,0,0-1.24,1.2,8.561,8.561,0,0,0-.748,1.164,2.147,2.147,0,0,1-.344.473.369.369,0,0,1-.288.134,1.853,1.853,0,0,1-.658-.36c-.271-.18-.533-.375-.8-.557-.553-.372-1.142-.685-1.693-1.06s-1.084-.777-1.6-1.2a33.071,33.071,0,0,0-3.1-2.319c-1.083-.684-2.206-1.3-3.317-1.934-1.156-.662-2.277-1.373-3.383-2.116-2.343-1.578-4.62-3.254-7.009-4.765a29.562,29.562,0,0,1-3.322-2.267,14.571,14.571,0,0,1-2.431-2.706,8.908,8.908,0,0,0-1.251-1.468l-.514.667a25.316,25.316,0,0,1,2.518,2.252c.813.777,1.688,1.481,2.572,2.177s1.756,1.362,2.61,2.075c.439.368.872.747,1.289,1.139.4.378.762.814,1.195,1.157a14.774,14.774,0,0,1,1.364,1c.2.2.387.409.594.594.224.2.477.377.713.563.906.714,1.817,1.424,2.739,2.118a62.214,62.214,0,0,0,5.611,3.809c2.291,1.361,4.612,2.679,6.994,3.872a.439.439,0,0,0,.514-.066c.205-.2.445-.351.66-.538a2.408,2.408,0,0,0,.492-.764c.266-.511.526-1.023.8-1.527a10.847,10.847,0,0,1,2.029-2.762c.4-.373-.2-.972-.6-.6a11.348,11.348,0,0,0-2.08,2.786c-.275.49-.531.991-.789,1.49a3.024,3.024,0,0,1-.422.748c-.212.209-.477.36-.692.567l.514-.066c-2.111-1.057-4.169-2.216-6.207-3.411a64.837,64.837,0,0,1-5.738-3.779c-.915-.675-1.814-1.368-2.708-2.068a14.5,14.5,0,0,1-1.364-1.1c-.2-.2-.39-.4-.594-.594a5.453,5.453,0,0,0-.738-.536,6.306,6.306,0,0,1-.592-.416c-.229-.19-.424-.423-.636-.633-.4-.4-.811-.775-1.234-1.144-.838-.73-1.715-1.413-2.593-2.1-.989-.774-1.992-1.541-2.9-2.4a30.776,30.776,0,0,0-2.888-2.574c-.389-.283-.869.346-.514.667a9.748,9.748,0,0,1,1.325,1.588,16.032,16.032,0,0,0,1.193,1.475,16.214,16.214,0,0,0,3.11,2.528c1.172.767,2.364,1.5,3.524,2.282,1.223.83,2.432,1.681,3.648,2.52,1.186.82,2.377,1.639,3.612,2.384,1.122.677,2.275,1.3,3.4,1.961a23.855,23.855,0,0,1,3.288,2.248,26.835,26.835,0,0,0,3.292,2.437c.575.35,1.125.723,1.687,1.094a1.668,1.668,0,0,0,1.492.409,2.055,2.055,0,0,0,.962-.96,6.617,6.617,0,0,1,.821-1.227,24.264,24.264,0,0,0,2.467-2.511c.733-1.057,1.183-2.294,1.992-3.3.86-1.071,1.931-1.95,2.822-2.995a24.523,24.523,0,0,0,2.221-3.307,32.358,32.358,0,0,1,2.4-3.441c.852-1.067,1.748-2.1,2.615-3.151a36,36,0,0,0,2.45-3.275,40.1,40.1,0,0,0,2.126-3.791c.356-.709.711-1.425,1.013-2.16a3.527,3.527,0,0,0,.412-2.119.833.833,0,0,0-.764-.606.427.427,0,0,0-.424.424.443.443,0,0,0,.429.426Z" transform="translate(1502.48 -337.788)" fill="#222221"/>
        </g>
        <g id="Group_2209" data-name="Group 2209" transform="translate(20.72 42.929)">
          <path id="Path_4272" data-name="Path 4272" d="M-1379.6,452.45c0,.02.019.131.007.02,0,.034.007.068.008.1,0,.07,0,.137,0,.207,0,.034-.027.234-.01.132-.014.083-.029.166-.046.248-.064.3-.16.587-.238.882a1.952,1.952,0,0,0,.173,1.805,1.936,1.936,0,0,0,.93.57,2.947,2.947,0,0,0,1.334.141,2.525,2.525,0,0,0,1.743-1.259,3.273,3.273,0,0,0,.411-2.214,2.387,2.387,0,0,0-.4-.965,1.828,1.828,0,0,0-.833-.626,4.238,4.238,0,0,0-2.2-.209,2.586,2.586,0,0,0-.94.307,1.388,1.388,0,0,0-.623.821,2.448,2.448,0,0,0,.852,2.5,4.515,4.515,0,0,0,2.455,1.167.427.427,0,0,0,.424-.424.435.435,0,0,0-.424-.424c.1.012-.031-.005-.042-.008-.041-.007-.08-.015-.119-.024-.069-.015-.137-.032-.205-.053a3.427,3.427,0,0,1-.428-.154,4.619,4.619,0,0,1-.859-.507,2.843,2.843,0,0,1-.672-.728,1.39,1.39,0,0,1-.226-.784c0-.029,0-.059.005-.088.012-.139-.019.073.01-.066a2.166,2.166,0,0,1,.063-.227c.017-.049.044-.087.071-.151.01-.024.053-.053-.019.02.026-.025.054-.053.078-.08.042-.051,0,0-.017.01.026-.019.049-.036.076-.053.046-.029.1-.053.143-.078.1-.051-.083.029.025-.012q.051-.02.1-.036c.071-.024.146-.044.219-.061a3.633,3.633,0,0,1,1.695.044c.063.017.126.037.188.059q.053.018.107.041c-.088-.036.022.012.032.017.051.027.1.053.153.085l.07.046c.026.019.019.012-.022-.017l.048.041c.036.036.071.07.1.109-.064-.08.015.029.022.039.022.034.044.07.065.105a1.147,1.147,0,0,1,.144.35c.02.073.036.146.051.219,0,.019.017.109.007.029.005.041.009.081.012.124a2.93,2.93,0,0,1-.007.458c-.014.136.015-.081-.007.054-.005.034-.012.07-.019.1-.015.076-.032.151-.054.226a2.5,2.5,0,0,1-.134.37,2.683,2.683,0,0,1-.231.394c.005-.007-.075.1-.041.056s-.051.059-.044.053a2.081,2.081,0,0,1-.168.175,1.569,1.569,0,0,1-.653.368c-.034.008-.217.041-.148.034a1.439,1.439,0,0,1-.209.01,1.865,1.865,0,0,1-.516-.076,2.848,2.848,0,0,1-.426-.139c-.059-.031-.115-.063-.173-.1-.014-.008-.105-.081-.029-.019-.034-.029-.064-.059-.1-.09a.561.561,0,0,1-.042-.048c.073.083-.007-.015-.021-.039s-.017-.036-.027-.053c-.034-.054.015.076-.01-.034-.008-.039-.031-.209-.024-.088,0-.061-.008-.12-.007-.182,0-.031,0-.063.005-.093,0-.012.017-.137.007-.071s.007-.037.008-.041l.025-.132c.031-.137.066-.275.105-.411a4.11,4.11,0,0,0,.243-1.905.429.429,0,0,0-.522-.3.433.433,0,0,0-.3.521Z" transform="translate(1380.367 -451.228)" fill="#222221"/>
        </g>
        <g id="Group_2210" data-name="Group 2210" transform="translate(13.07 38.035)">
          <path id="Path_4273" data-name="Path 4273" d="M-1423.45,423.189a1.406,1.406,0,0,0-1.5-.706.414.414,0,0,0-.3.3,4.594,4.594,0,0,0,.139,3.1,3.226,3.226,0,0,0,2.359,1.322,2.5,2.5,0,0,0,1.464-.158,1.335,1.335,0,0,0,.711-.982,4.31,4.31,0,0,0-.521-2.722,1.823,1.823,0,0,0-1.278-.915,10.915,10.915,0,0,0-1.855,0v.848a5.631,5.631,0,0,1,1.551.18c.506.126,1,.271,1.519.358a.439.439,0,0,0,.523-.3.429.429,0,0,0-.3-.523c-.533-.088-1.049-.243-1.573-.372a6.405,6.405,0,0,0-1.722-.2.424.424,0,0,0,0,.848c.477,0,.955-.063,1.432-.044a1.11,1.11,0,0,1,.865.378,2.452,2.452,0,0,1,.2.356.548.548,0,0,1,.024.054c0-.008-.022-.054,0-.007s.037.092.054.139c.034.092.064.183.092.277a3.648,3.648,0,0,1,.187,1.127c0,.087,0,.171-.012.256-.005.051,0,0,0-.012,0,.02-.007.039-.01.059-.009.044-.019.088-.031.131-.005.015-.046.129-.027.087s-.024.044-.032.058-.066.09-.034.053-.046.041-.059.054c.066-.059-.141.08-.115.068s-.058.02-.076.027c-.044.014-.09.025-.136.036-.021.005-.119.022-.051.012-.049.007-.1.01-.151.014a2.786,2.786,0,0,1-.292,0,2.673,2.673,0,0,1-.543-.092,4.4,4.4,0,0,1-.534-.176,3.184,3.184,0,0,1-.492-.263c-.041-.025-.08-.053-.119-.081.053.039-.019-.015-.036-.031a1.621,1.621,0,0,1-.163-.161c-.029-.032.005.008.009.014-.022-.029-.041-.059-.061-.092a1.384,1.384,0,0,1-.075-.139c.015.034-.029-.073-.036-.093-.019-.054-.034-.109-.047-.163a2.8,2.8,0,0,1-.083-.687,5.7,5.7,0,0,1,.153-1.425l-.3.3a.524.524,0,0,1,.277.037.717.717,0,0,1,.268.278c.287.463,1.022.037.735-.429Z" transform="translate(1425.45 -422.382)" fill="#222221"/>
        </g>
      </g>
    </g>
  </g>
</svg>
