<svg xmlns="http://www.w3.org/2000/svg" width="22.471" height="22.471" viewBox="0 0 22.471 22.471">
  <path id="_290103_discover_explore_explorer_find_search_icon" data-name="290103_discover_explore_explorer_find_search_icon" d="M14.235,25.471A11.235,11.235,0,1,1,25.471,14.235,11.235,11.235,0,0,1,14.235,25.471Zm0-21.4A10.165,10.165,0,1,0,24.4,14.235,10.166,10.166,0,0,0,14.235,4.07Zm8.56,10.7h-.535a.535.535,0,1,1,0-1.07H22.8a.535.535,0,1,1,0,1.07ZM19.574,19.16a.5.5,0,0,1-.14.275.521.521,0,0,1-.6.092l.031.032,0,0h0l-.248-.1a33.139,33.139,0,0,1-5.279-2.642,6.043,6.043,0,0,1-.96-.724c-.024-.023-1.331-1.29-3.47-6.487h0l.036.036c-.005-.011-.006-.022-.011-.033a.517.517,0,0,1-.02-.354.5.5,0,0,1,.123-.218.518.518,0,0,1,.589-.1.123.123,0,0,1,.015.005l-.012-.013-.023-.022h0c5.2,2.138,6.464,3.446,6.487,3.47s1.331,1.291,3.47,6.487h0l-.024-.024-.012-.012a.58.58,0,0,1,.026.078A.528.528,0,0,1,19.574,19.16Zm-4.244-6.03c-.011-.011-1.079-1.031-4.915-2.714,1.683,3.837,2.7,4.9,2.726,4.926s1.079,1.032,4.915,2.714C16.373,14.219,15.351,13.151,15.33,13.129Zm-1.095.571a.535.535,0,1,1-.535.535A.535.535,0,0,1,14.235,13.7Zm0-6.955A.535.535,0,0,1,13.7,6.21V5.675a.535.535,0,1,1,1.07,0V6.21A.535.535,0,0,1,14.235,6.745Zm0,14.98a.535.535,0,0,1,.535.535V22.8a.535.535,0,1,1-1.07,0v-.535A.535.535,0,0,1,14.235,21.726ZM6.21,14.77H5.675a.535.535,0,1,1,0-1.07H6.21a.535.535,0,1,1,0,1.07Z" transform="translate(-3 -3)" fill="#585d5e" fill-rule="evenodd"/>
</svg>
