<svg xmlns="http://www.w3.org/2000/svg" xmlns:xlink="http://www.w3.org/1999/xlink" width="54.788" height="26.875" viewBox="0 0 54.788 26.875">
  <defs>
    <filter id="Ellipse_2128" x="0" y="5.25" width="21.625" height="21.625" filterUnits="userSpaceOnUse">
      <feOffset dy="3" input="SourceAlpha"/>
      <feGaussianBlur stdDeviation="3" result="blur"/>
      <feFlood flood-opacity="0.161"/>
      <feComposite operator="in" in2="blur"/>
      <feComposite in="SourceGraphic"/>
    </filter>
    <filter id="Ellipse_2122" x="33.163" y="5.25" width="21.625" height="21.625" filterUnits="userSpaceOnUse">
      <feOffset dy="3" input="SourceAlpha"/>
      <feGaussianBlur stdDeviation="3" result="blur-2"/>
      <feFlood flood-opacity="0.161"/>
      <feComposite operator="in" in2="blur-2"/>
      <feComposite in="SourceGraphic"/>
    </filter>
    <filter id="Path_3058" x="14.875" y="0" width="25.814" height="25.814" filterUnits="userSpaceOnUse">
      <feOffset input="SourceAlpha"/>
      <feGaussianBlur stdDeviation="2.5" result="blur-3"/>
      <feFlood flood-color="#858381" flood-opacity="0.741"/>
      <feComposite operator="in" in2="blur-3"/>
      <feComposite in="SourceGraphic"/>
    </filter>
  </defs>
  <g id="Group_1641" data-name="Group 1641" transform="translate(-176.075 -617.408)">
    <g id="Path_3366" data-name="Path 3366" transform="translate(181.45 625.033)" fill="#fff" opacity="0.27">
      <path d="M 5.406925678253174 10.31387996673584 C 2.701235771179199 10.31387996673584 0.4999956786632538 8.112640380859375 0.4999956786632538 5.40693998336792 C 0.4999956786632538 2.701240062713623 2.701235771179199 0.4999999701976776 5.406925678253174 0.4999999701976776 C 8.112615585327148 0.4999999701976776 10.31385612487793 2.701240062713623 10.31385612487793 5.40693998336792 C 10.31385612487793 8.112640380859375 8.112615585327148 10.31387996673584 5.406925678253174 10.31387996673584 Z" stroke="none"/>
      <path d="M 5.406925678253174 1 C 2.976935863494873 1 0.999995231628418 2.976950168609619 0.999995231628418 5.40693998336792 C 0.999995231628418 7.836930274963379 2.976935863494873 9.81387996673584 5.406925678253174 9.81387996673584 C 7.836915969848633 9.81387996673584 9.81385612487793 7.836930274963379 9.81385612487793 5.40693998336792 C 9.81385612487793 2.976950168609619 7.836915969848633 1 5.406925678253174 1 M 5.406925678253174 0 C 8.393085479736328 0 10.81385612487793 2.420769691467285 10.81385612487793 5.40693998336792 C 10.81385612487793 8.393110275268555 8.393085479736328 10.81387996673584 5.406925678253174 10.81387996673584 C 2.42076587677002 10.81387996673584 -4.76837158203125e-06 8.393110275268555 -4.76837158203125e-06 5.40693998336792 C -4.76837158203125e-06 2.420769691467285 2.42076587677002 0 5.406925678253174 0 Z" stroke="none" fill="#707070"/>
    </g>
    <g id="Path_3347" data-name="Path 3347" transform="translate(214.613 625.033)" fill="#fff" opacity="0.27">
      <path d="M 5.406925678253174 10.31387996673584 C 2.701235771179199 10.31387996673584 0.4999956786632538 8.112640380859375 0.4999956786632538 5.40693998336792 C 0.4999956786632538 2.701240062713623 2.701235771179199 0.4999999701976776 5.406925678253174 0.4999999701976776 C 8.112615585327148 0.4999999701976776 10.31385612487793 2.701240062713623 10.31385612487793 5.40693998336792 C 10.31385612487793 8.112640380859375 8.112615585327148 10.31387996673584 5.406925678253174 10.31387996673584 Z" stroke="none"/>
      <path d="M 5.406925678253174 1 C 2.976935863494873 1 0.999995231628418 2.976950168609619 0.999995231628418 5.40693998336792 C 0.999995231628418 7.836930274963379 2.976935863494873 9.81387996673584 5.406925678253174 9.81387996673584 C 7.836915969848633 9.81387996673584 9.81385612487793 7.836930274963379 9.81385612487793 5.40693998336792 C 9.81385612487793 2.976950168609619 7.836915969848633 1 5.406925678253174 1 M 5.406925678253174 0 C 8.393085479736328 0 10.81385612487793 2.420769691467285 10.81385612487793 5.40693998336792 C 10.81385612487793 8.393110275268555 8.393085479736328 10.81387996673584 5.406925678253174 10.81387996673584 C 2.42076587677002 10.81387996673584 -4.76837158203125e-06 8.393110275268555 -4.76837158203125e-06 5.40693998336792 C -4.76837158203125e-06 2.420769691467285 2.42076587677002 0 5.406925678253174 0 Z" stroke="none" fill="#707070"/>
    </g>
    <g transform="matrix(1, 0, 0, 1, 176.07, 617.41)" filter="url(#Ellipse_2128)">
      <ellipse id="Ellipse_2128-2" data-name="Ellipse 2128" cx="1.812" cy="1.812" rx="1.812" ry="1.812" transform="translate(9 11.25)" fill="#b2babb" opacity="0.27"/>
    </g>
    <g transform="matrix(1, 0, 0, 1, 176.07, 617.41)" filter="url(#Ellipse_2122)">
      <ellipse id="Ellipse_2122-2" data-name="Ellipse 2122" cx="1.812" cy="1.812" rx="1.812" ry="1.812" transform="translate(42.16 11.25)" fill="#b2babb" opacity="0.27"/>
    </g>
    <g transform="matrix(1, 0, 0, 1, 176.07, 617.41)" filter="url(#Path_3058)">
      <path id="Path_3058-2" data-name="Path 3058" d="M5.407,0A5.407,5.407,0,1,1,0,5.407,5.407,5.407,0,0,1,5.407,0Z" transform="translate(22.38 7.5)" fill="#707070" opacity="0.32"/>
    </g>
    <path id="Path_4209" data-name="Path 4209" d="M1.812,0A1.812,1.812,0,1,1,0,1.812,1.812,1.812,0,0,1,1.812,0Z" transform="translate(201.889 628.658)" fill="#060000"/>
  </g>
</svg>
