<svg xmlns="http://www.w3.org/2000/svg" width="17.979" height="12.631" viewBox="0 0 17.979 12.631">
  <g id="shake-hands-svgrepo-com" transform="translate(0 0)">
    <path id="Path_4188" data-name="Path 4188" d="M17.915,77.95l-3.8-3.8a.22.22,0,0,0-.31,0l-.876.872a.22.22,0,0,0-.064.156.213.213,0,0,0,.064.155l.386.387-.91.911L9,77.031l-3.4-.4-.914-.913.384-.384a.22.22,0,0,0,.064-.155.224.224,0,0,0-.064-.156l-.875-.872a.219.219,0,0,0-.31,0l-3.82,3.8a.218.218,0,0,0,0,.309l.872.874.027.025L2.779,82.02a4.075,4.075,0,0,0,.381.616l3.8,3.8a.9.9,0,0,0,.625.276.626.626,0,0,0,.448-.178l.056-.054,0,0a.775.775,0,0,0,.9.1.776.776,0,0,0,.9-.1l0,0,.056.054a.622.622,0,0,0,.448.178.9.9,0,0,0,.624-.276l3.8-3.8L17,79.178l.919-.919a.219.219,0,0,0,.064-.155A.215.215,0,0,0,17.915,77.95Zm-3.9-3.042a.308.308,0,0,1,0,.616.308.308,0,1,1,0-.616Zm-10.383.28a.308.308,0,1,1,.239.366A.309.309,0,0,1,3.633,75.188Zm7.675,9.627c.053.054.076.114.031.158l-.458.457a.074.074,0,0,1-.05.017.159.159,0,0,1-.109-.05l-.55-.558L8.48,83.15l-.469.467,0,0L9.833,85.44c.017.018.061.069.023.106l-.443.443c-.075.076-.159-.032-.159-.032L7.38,84.081H6.454a.21.21,0,0,0,.025.03l1.4,1.4c.045.045.1.1.053.149l-.363.362c-.037.036-.1.025-.153-.034L3.622,82.194c-.113-.163-1.032-1.715-1.685-2.821l2.715-2.715.588.6a.219.219,0,0,0,.144.066l1.51.163a.917.917,0,0,0-.231.743l.1.82a.861.861,0,0,0,.924.778l.993-.093,3.259,3.282a.136.136,0,0,1,0,.191l-.526.527a.141.141,0,0,1-.192,0l-2.08-2.08v1ZM14.374,82.2,11.968,84.6l-.213-.227.674-.678c.459-.459.321-.926-.294-1.539l-2.64-2.6.154-.131L9.5,78.944l-1.875.172H7.6a.165.165,0,0,1-.143-.155l-.105-.819A.19.19,0,0,1,7.383,78a.125.125,0,0,1,.077-.048l5.154-.627a.221.221,0,0,0,.144-.065l.588-.6,2.716,2.715C15.409,80.482,14.49,82.033,14.374,82.2Z" transform="translate(0 -74.081)" fill="#060000"/>
  </g>
</svg>
