<svg id="share-svgrepo-com_1_" data-name="share-svgrepo-com (1)" xmlns="http://www.w3.org/2000/svg" width="10.628" height="11.247" viewBox="0 0 10.628 11.247">
  <path id="Path_4167" data-name="Path 4167" d="M85.77,50.553a.237.237,0,0,0,.119-.442l-6.669-3.85a.237.237,0,0,0-.237.41l6.669,3.85A.235.235,0,0,0,85.77,50.553Z" transform="translate(-77.328 -44.693)" fill="#060000"/>
  <ellipse id="Ellipse_2160" data-name="Ellipse 2160" cx="1.773" cy="1.773" rx="1.773" ry="1.773" transform="translate(0 0)" fill="#060000"/>
  <path id="Path_4168" data-name="Path 4168" d="M79.1,154.309a.236.236,0,0,0,.118-.032l6.669-3.85a.237.237,0,1,0-.237-.41l-6.669,3.85a.237.237,0,0,0,.119.442Z" transform="translate(-77.328 -144.598)" fill="#060000"/>
  <ellipse id="Ellipse_2161" data-name="Ellipse 2161" cx="1.773" cy="1.773" rx="1.773" ry="1.773" transform="translate(0 7.701)" fill="#060000"/>
  <ellipse id="Ellipse_2162" data-name="Ellipse 2162" cx="2.185" cy="2.185" rx="2.185" ry="2.185" transform="translate(6.257 3.438)" fill="#060000"/>
</svg>
