<svg xmlns="http://www.w3.org/2000/svg" width="19.963" height="9.069" viewBox="0 0 19.963 9.069">
  <g id="_5965097681639584359" data-name="5965097681639584359" transform="translate(-2.004 -4.046)">
    <path id="Path_4792" data-name="Path 4792" d="M21.806,6.934l-.4,2.354a.332.332,0,0,0,.483.35l2.1-1.111L26.1,9.638a.332.332,0,0,0,.483-.35l-.4-2.354,1.7-1.667A.332.332,0,0,0,27.7,4.7l-2.354-.344L24.291,2.217a.346.346,0,0,0-.6,0L22.641,4.358,20.287,4.7a.332.332,0,0,0-.184.565Zm1.1-1.945a.332.332,0,0,0,.25-.182l.832-1.691.831,1.691a.332.332,0,0,0,.25.182l1.862.272L25.588,6.581a.332.332,0,0,0-.1.294l.318,1.862-1.662-.878a.334.334,0,0,0-.31,0l-1.662.878.318-1.862a.332.332,0,0,0-.1-.294L21.05,5.262Z" transform="translate(-12.016 2)" fill="#060000"/>
    <path id="Path_4793" data-name="Path 4793" d="M50.49,18.927l-1.463-.759-.2-1.642a.332.332,0,0,0-.565-.2l-1.176,1.164-1.619-.31a.332.332,0,0,0-.36.475l.737,1.479-.8,1.451a.332.332,0,0,0,.341.489l1.631-.249,1.126,1.206a.332.332,0,0,0,.571-.173l.272-1.634,1.5-.705a.332.332,0,0,0,.011-.6Zm-1.947.774a.332.332,0,0,0-.186.246l-.189,1.14-.786-.841a.332.332,0,0,0-.243-.105.316.316,0,0,0-.05,0l-1.138.174.557-1.013A.332.332,0,0,0,46.514,19L46,17.963l1.13.217a.332.332,0,0,0,.3-.09l.82-.811.142,1.145a.332.332,0,0,0,.177.254l1.023.532Z" transform="translate(-28.704 -9.025)" fill="#060000"/>
    <path id="Path_4794" data-name="Path 4794" d="M2.193,19.522l1.5.705.271,1.634a.332.332,0,0,0,.571.173l1.126-1.206,1.631.249a.332.332,0,0,0,.341-.489l-.8-1.451.738-1.479a.332.332,0,0,0-.36-.475l-1.62.31L4.414,16.329a.332.332,0,0,0-.565.2l-.2,1.642-1.463.759a.332.332,0,0,0,.011.6Zm1.914-.846a.332.332,0,0,0,.177-.254l.142-1.145.82.811a.335.335,0,0,0,.3.09l1.13-.217L6.157,19a.332.332,0,0,0,.006.309l.56,1.013-1.14-.174a.332.332,0,0,0-.293.1l-.786.841-.189-1.14a.332.332,0,0,0-.186-.246l-1.045-.491Z" transform="translate(0 -9.024)" fill="#060000"/>
  </g>
</svg>
