<svg xmlns="http://www.w3.org/2000/svg" width="11.084" height="11.216" viewBox="0 0 11.084 11.216">
  <g id="_2152982911579252563" data-name="2152982911579252563" transform="translate(0 0)">
    <path id="Path_4274" data-name="Path 4274" d="M12.765,2.6a8.656,8.656,0,0,0-1.059.095,3.254,3.254,0,0,0-.908.246,3.885,3.885,0,0,0-.832.738,18.476,18.476,0,0,0-1.4,1.8A26.135,26.135,0,0,0,7.091,7.82c-.378.662-.757,1.4-1.135,2.175a4.192,4.192,0,0,0-.832-.813A1.9,1.9,0,0,0,4.083,8.8a1.889,1.889,0,0,0-1.078.435,1.3,1.3,0,0,0-.605,1,1.541,1.541,0,0,0,.53.984,12.51,12.51,0,0,1,1.229,1.57c.227.34.378.567.473.681a1.127,1.127,0,0,0,.4.265,2.555,2.555,0,0,0,.775.076,2.337,2.337,0,0,0,1.059-.17,1.14,1.14,0,0,0,.473-.473c.095-.189.265-.549.492-1.116a26.935,26.935,0,0,1,2.308-4.426,18.367,18.367,0,0,1,2.78-3.518,2,2,0,0,0,.416-.435.4.4,0,0,0,.151-.359.687.687,0,0,0-.208-.492A.622.622,0,0,0,12.765,2.6Z" transform="translate(-2.4 -2.6)" fill="#ffad00"/>
  </g>
</svg>
